<?xml version="1.0" encoding="UTF-8" standalone="no"?>
<svg
   xmlns:dc="http://purl.org/dc/elements/1.1/"
   xmlns:cc="http://creativecommons.org/ns#"
   xmlns:rdf="http://www.w3.org/1999/02/22-rdf-syntax-ns#"
   xmlns:svg="http://www.w3.org/2000/svg"
   xmlns="http://www.w3.org/2000/svg"
   id="svg5226"
   version="1.1"
   viewBox="0 0 108.41013 104.34126"
   height="104.34126mm"
   width="108.41013mm">
  <defs
     id="defs5220" />
  <metadata
     id="metadata5223">
    <rdf:RDF>
      <cc:Work
         rdf:about="">
        <dc:format>image/svg+xml</dc:format>
        <dc:type
           rdf:resource="http://purl.org/dc/dcmitype/StillImage" />
        <dc:title></dc:title>
      </cc:Work>
    </rdf:RDF>
  </metadata>
  <g
     transform="translate(-21.704225,-55.055586)"
     id="layer1">
    <path
       id="path5180"
       d="m 76.019916,55.055654 c -2.64038,0.003 -5.28735,0.21518 -7.25484,0.63614 -7.81548,1.67223 -13.47005,4.73673 -19.06654,10.33322 -5.54181,5.54177 -8.66302,11.2718 -10.35907,19.01796 -0.81243,3.71051 -0.81037,10.71674 0.004,14.49576 1.60515,7.447206 4.71019,13.330956 9.90846,18.775586 1.42785,1.49547 2.50264,2.77445 2.389,2.84221 -0.11364,0.0678 -1.27775,0.56262 -2.58744,1.09967 -6.28443,2.57702 -11.94369,6.351 -16.66875,11.11508 -6.63091,6.68568 -9.95143,13.79354 -10.59987,22.69061 -0.13959,1.91524 -0.10226,2.67829 0.14571,2.97708 0.29654,0.3573 6.2961,0.39424 54.2091,0.33486 l 53.876314,-0.0667 0.0822,-2.24896 c 0.40462,-11.04791 -6.81406,-22.70989 -18.87636,-30.49478 -2.00919,-1.29669 -7.44008,-4.06783 -9.45885,-4.82658 -0.69596,-0.26159 -1.323,-0.56903 -1.39322,-0.68264 -0.0702,-0.11361 0.54602,-0.84008 1.36943,-1.61437 8.9598,-8.42566 13.1871,-21.260986 11.05101,-33.554536 -2.61607,-15.05604 -14.218364,-26.91478 -29.555814,-30.20901 -1.94061,-0.41681 -4.57417,-0.62345 -7.21455,-0.62064 z"
       style="fill:#cccccc;stroke-width:0.26458338;fill-opacity:1" />
  </g>
</svg>
