<?xml version="1.0" encoding="UTF-8" standalone="no"?>
<!-- Created with Inkscape (http://www.inkscape.org/) -->

<svg
   xmlns:dc="http://purl.org/dc/elements/1.1/"
   xmlns:cc="http://creativecommons.org/ns#"
   xmlns:rdf="http://www.w3.org/1999/02/22-rdf-syntax-ns#"
   xmlns:svg="http://www.w3.org/2000/svg"
   xmlns="http://www.w3.org/2000/svg"
   xmlns:sodipodi="http://sodipodi.sourceforge.net/DTD/sodipodi-0.dtd"
   xmlns:inkscape="http://www.inkscape.org/namespaces/inkscape"
   width="1005"
   height="880"
   id="svg3357"
   version="1.1"
   inkscape:version="0.48.0 r9654"
   sodipodi:docname="New document 1">
  <defs
     id="defs3359" />
  <sodipodi:namedview
     id="base"
     pagecolor="#ffffff"
     bordercolor="#666666"
     borderopacity="1.0"
     inkscape:pageopacity="0.0"
     inkscape:pageshadow="2"
     inkscape:zoom="0.30580531"
     inkscape:cx="912.71245"
     inkscape:cy="936.31426"
     inkscape:document-units="px"
     inkscape:current-layer="layer1"
     showgrid="false"
     fit-margin-top="0"
     fit-margin-left="0"
     fit-margin-right="0"
     fit-margin-bottom="0"
     inkscape:window-width="1158"
     inkscape:window-height="845"
     inkscape:window-x="2524"
     inkscape:window-y="255"
     inkscape:window-maximized="0" />
  <metadata
     id="metadata3362">
    <rdf:RDF>
      <cc:Work
         rdf:about="">
        <dc:format>image/svg+xml</dc:format>
        <dc:type
           rdf:resource="http://purl.org/dc/dcmitype/StillImage" />
        <dc:title></dc:title>
      </cc:Work>
    </rdf:RDF>
  </metadata>
  <g
     inkscape:label="Layer 1"
     inkscape:groupmode="layer"
     id="layer1"
     transform="translate(-6.4845205e-5,-172.36221)">
    <g
       id="g4359"
       transform="matrix(1.2077295,0,0,1.2077295,-1060.8514,-627.14073)">
      <path
         style="fill:#ffffff;fill-opacity:1"
         d="m 880.45499,1346.7827 c 0,-227.6793 0,-455.35856 0,-683.03786 260.62621,0 521.25241,0 781.87861,0 l -0.1547,3.75 c 0.5116,227.59958 0.2864,478.37576 0.2761,678.74956 -280.2531,0.8617 -534.8509,-0.8468 -782.00001,0.5383 z"
         id="path4357"
         inkscape:connector-curvature="0"
         sodipodi:nodetypes="cccccc" />
      <path
         sodipodi:nodetypes="ccccccsscccssscsscccsscccsssscscssssssssscssccssssssscccccscscscsscccccccccccccccccccccccssssssssssssssssscsscccccccssssssssscsssssssssscssssssssc"
         inkscape:connector-curvature="0"
         id="path3533"
         d="m 880.45499,1346.7827 c 0,-227.6793 0,-455.35822 0,-683.03752 260.62621,0 521.37381,0 782.00001,0 0.1856,232.23323 0.018,470.80522 0,682.49922 -280.2531,0.8617 -534.8509,-0.8468 -782.00001,0.5383 z m 475.50001,-32.1976 c 28.5473,-4.8414 45.5766,-21.571 49.488,-48.6169 0.5348,-3.6979 0.9805,-30.3484 0.9905,-59.2234 l 0.018,-52.5 -20.4274,0 -20.4274,0 -0.3673,50.5 c -0.3482,47.8823 -0.4746,50.8192 -2.4375,56.6583 -1.1387,3.387 -3.0597,7.5478 -4.269,9.2461 -5.1557,7.2405 -16.7643,10.5461 -28.4884,8.1122 -4.8861,-1.0144 -6.6563,-2.0054 -10.4828,-5.8685 -8.4746,-8.5559 -8.4095,-8.0618 -8.8466,-67.1481 l -0.381,-51.5 -20.4517,0.096 -20.4517,0.096 0.021,54.9036 c 0.023,61.0037 0.2164,63.2811 6.4369,75.9037 11.72,23.7824 43.7176,35.5064 80.0763,29.3402 z m 160.4903,0.038 c 14.8609,-2.3369 30.2125,-11.4832 37.0622,-22.081 9.8303,-15.2094 11.5806,-38.6762 4.0042,-53.685 -5.5374,-10.9694 -14.7258,-16.9509 -37.0567,-24.1231 -8.525,-2.738 -16.9381,-5.8592 -18.6957,-6.936 -8.6462,-5.297 -8.6616,-14.8247 -0.033,-20.0724 8.4832,-5.159 23.2553,-2.7294 34.4555,5.6669 l 3.2273,2.4194 8.0227,-16.0219 c 4.4125,-8.812 8.0227,-16.2757 8.0227,-16.5861 0,-1.113 -12.665,-6.4132 -21.1511,-8.8514 -42.5317,-12.2202 -75.0043,3.2648 -81.545,38.8859 -1.3985,7.6164 -1.4629,10.2049 -0.435,17.4736 2.8509,20.1597 11.6697,28.1928 40.1311,36.5557 20.3564,5.9815 26.5905,10.4296 26.409,18.8434 -0.1779,8.2504 -6.3778,13.5403 -16.8553,14.3814 -11.0067,0.8835 -21.5698,-2.8537 -33.4073,-11.8192 -2.9445,-2.2301 -5.478,-3.9138 -5.6301,-3.7417 -0.1521,0.1722 -4.1435,7.6972 -8.8699,16.7223 -9.8682,18.8434 -10.235,16.2768 3.3536,23.4633 18.3676,9.7139 37.7775,12.8417 58.9904,9.5059 z m -487.8719,-28.1284 c 0.065,-13.8875 0.065,-25.5875 0,-26 -0.065,-0.4125 7.6441,-0.7578 17.1316,-0.7673 25.91,-0.026 36.5812,-2.981 47.269,-13.0891 9.4443,-8.9321 14.4272,-22.5263 14.4636,-39.4599 0.055,-25.7425 -10.9419,-42.3343 -32.9105,-49.6525 -6.1942,-2.0635 -8.8865,-2.2208 -46.823,-2.7353 l -40.25096,-0.5459 9.3e-4,78.75 9.2e-4,78.75 20.50001,0 20.5,0 z m 0.6398,-60.3576 c -0.2946,-0.4908 -0.5011,-9.3299 -0.4588,-19.6424 l 0.077,-18.75 7.6754,0 c 9.675,0 17.7244,1.4848 20.9483,3.864 5.7325,4.2307 8.3803,14.1346 6.0264,22.5417 -2.3368,8.3461 -8.2385,11.4353 -23.4975,12.2994 -5.6385,0.3193 -10.4755,0.1789 -10.7706,-0.3127 z m 207.2418,68.1076 0,-17.5 -24.4923,0 -24.4923,0 -0.2577,-61.1005 -0.2577,-61.1006 -20.5,0.076 -20.5,0.076 -0.2561,78.5247 -0.256,78.5246 45.506,0 45.5061,0 0,-17.5 z m 401,-605.49457 c -244,-0.16846 -488,-0.33692 -732.00002,-0.50539 l -0.002,2.75 c -0.003,3.59944 -0.003,432.59706 0,433.24996 257.79622,0.7586 454.26982,0.5 732.00232,0.5 3e-4,-151.6419 -3e-4,-280.50254 -3e-4,-435.99457 z m -576,411.31587 c -32.4449,-3.3256 -60.0219,-11.7533 -86.69918,-26.4958 -8.44563,-4.6672 -9.16208,-5.2983 -8.74639,-7.7045 0.24902,-1.4415 1.57606,-9.8209 2.94897,-18.6209 3.6953,-23.6859 6.15708,-39.4368 8.44934,-54.06056 1.12599,-7.18333 2.04725,-13.45502 2.04725,-13.93709 0,-0.48207 1.2375,0.23262 2.75,1.5882 14.69605,13.17133 38.09911,26.65125 56.98521,32.82295 14.9808,4.8955 25.1413,6.5125 40.7648,6.4876 12.5441,-0.02 14.7647,-0.2953 21.3537,-2.6475 4.0446,-1.4438 9.0975,-3.779 11.2286,-5.1893 2.1311,-1.4104 4.2455,-2.5643 4.6985,-2.5643 2.0716,0 14.0916,-14.30816 16.9058,-20.12398 4.4812,-9.26087 5.6745,-15.59956 5.0546,-26.84933 -0.8257,-14.98577 -5.8393,-26.04948 -16.4837,-36.37532 -10.9231,-10.59625 -25.2913,-17.3114 -44.2575,-20.68433 -8.6752,-1.54277 -34.1173,-1.27996 -44.8987,0.4638 -13.7599,2.2255 -32.0574,7.42665 -39.29683,11.17031 -1.64469,0.8505 -3.26437,1.27233 -3.5993,0.9374 -0.33493,-0.33492 2.21554,-18.0306 5.6677,-39.32373 10.61883,-65.49754 15.79193,-97.49115 20.77183,-128.46478 l 4.7831,-29.75 94.7861,0 94.7861,0 0,40.48376 0,40.48376 -62.9756,-0.23376 -62.9756,-0.23376 -0.52,2.5 c -0.2859,1.375 -1.6608,10.15 -3.0552,19.5 -1.3943,9.35 -2.6338,17.65645 -2.7544,18.45878 -0.2444,1.62634 1.2359,1.6258 19.2808,-0.007 36.046,-3.26164 59.859,1.94151 85.1524,18.60578 9.3764,6.17752 24.0559,20.98004 30.7892,31.04704 15.8395,23.682 23.3449,49.06615 23.4753,79.39541 0.099,23.08787 -3.3725,38.22255 -13.4192,58.50005 -19.9371,40.2395 -56.3301,63.4696 -109.538,69.9193 -11.8227,1.4331 -43.1252,1.9611 -53.4597,0.9018 z m 351.5865,-0.8955 c -47.3568,-7.9625 -82.8962,-36.0814 -106.0733,-83.9257 -15.5476,-32.09471 -23.5274,-69.85288 -23.5025,-111.20677 0.059,-98.3359 44.1278,-172.60765 113.9893,-192.11376 34.2187,-9.55426 77.132,-5.69975 105.9792,9.51918 47.6838,25.15658 78.4243,77.05288 87.6479,147.96782 2.0174,15.51001 2.2789,50.00922 0.4954,65.33357 -4.231,36.35236 -15.8362,72.45006 -31.3167,97.40986 -21.4774,34.6287 -49.2647,55.3527 -87.2302,65.0572 -14.3667,3.6723 -44.0357,4.641 -59.9891,1.9586 z m 31.3273,-82.4814 c 24.1622,-3.9204 40.7032,-26.89808 49.4913,-68.75025 11.48,-54.67214 0.4921,-118.16213 -24.8839,-143.78297 -8.0633,-8.14106 -15.1372,-11.94571 -24.6951,-13.28218 -20.3386,-2.84389 -38.5818,8.59676 -50.1085,31.42384 -3.9389,7.80051 -9.3022,24.02206 -11.5748,35.00875 -5.2151,25.21116 -6.3434,46.68763 -3.6585,69.63961 2.858,24.43228 7.3443,40.74972 16.0657,58.43284 10.0378,20.35256 22.7794,30.14536 41.95,32.24166 0.5499,0.06 3.8862,-0.359 7.4138,-0.9313 z"
         style="fill:#92278f;fill-opacity:1" />
      <path
         sodipodi:nodetypes="ccccccc"
         inkscape:connector-curvature="0"
         id="path3531"
         d="m 976.45504,1388.5584 0,-42.314 685.99996,0 0,-591.53599 46,0 c 0,210.95001 0,422.89999 0,633.84999 z"
         style="fill:#5f015c;fill-opacity:1" />
    </g>
  </g>
</svg>
