<?xml version="1.0" encoding="utf-8"?>
<!-- Generator: Adobe Illustrator 19.1.0, SVG Export Plug-In . SVG Version: 6.00 Build 0)  -->
<svg version="1.1" id="Laag_1" xmlns="http://www.w3.org/2000/svg" xmlns:xlink="http://www.w3.org/1999/xlink" x="0px" y="0px"
	 viewBox="0 0 283.5 283.5" style="enable-background:new 0 0 283.5 283.5;" xml:space="preserve">
<style type="text/css">
	.st0{fill:#007B5F;}
</style>
<g>
	<path class="st0" d="M146.2,126.1h-6.4l-11,31.5c21.1,0,26.4-18.3,26.4-25.1C155.2,128,150.8,126.1,146.2,126.1z"/>
	<polygon class="st0" points="211.1,153.5 224.3,153.5 226.4,129.8 224.8,129.8 	"/>
	<path class="st0" d="M141.7,0C63.6,0,0,63.6,0,141.7c0,78.2,63.6,141.7,141.7,141.7c78.2,0,141.7-63.6,141.7-141.7
		C283.5,63.6,219.9,0,141.7,0z M83.3,176.3c-5.2,1.5-13.9,2.9-22.8,2.9c-20.7,0-32.4-15-32.4-26.1c0-29.1,28.5-48.7,57.9-48.7
		c7,0,15,0.9,20.8,2.4l-8,23c-3.7-1.5-10.2-2.4-17.1-2.4c-9,0-24.2,6.8-24.2,19c0,7,5.5,10.4,15.5,10.4c7,0,11.8-1.5,18.4-4.1
		L83.3,176.3z M127,178.7H94.4l25.9-74h28.9c28.1,0,34.6,14,34.6,25.8C183.8,152.4,162.8,178.7,127,178.7z M222.2,178.7l1-11.6h-20
		l-6.8,11.6h-29l54.7-74h26.7v74H222.2z"/>
</g>
</svg>
