<?xml version="1.0" encoding="UTF-8" standalone="no"?>
<svg
   xmlns:dc="http://purl.org/dc/elements/1.1/"
   xmlns:cc="http://creativecommons.org/ns#"
   xmlns:rdf="http://www.w3.org/1999/02/22-rdf-syntax-ns#"
   xmlns:svg="http://www.w3.org/2000/svg"
   xmlns="http://www.w3.org/2000/svg"
   id="svg4712"
   version="1.1"
   viewBox="0 0 177.50359 39.361534"
   height="39.361534mm"
   width="177.50359mm">
  <defs
     id="defs4706">
    <clipPath
       id="clipPath4580"
       clipPathUnits="userSpaceOnUse">
      <path
         id="path4578"
         d="M 42.409,34.527 H 320.856 V 146.103 H 42.409 Z" />
    </clipPath>
    <clipPath
       id="clipPath4560"
       clipPathUnits="userSpaceOnUse">
      <path
         id="path4558"
         d="m 356.699,48.001 h 188.87 v 84.613 h -188.87 z" />
    </clipPath>
  </defs>
  <metadata
     id="metadata4709">
    <rdf:RDF>
      <cc:Work
         rdf:about="">
        <dc:format>image/svg+xml</dc:format>
        <dc:type
           rdf:resource="http://purl.org/dc/dcmitype/StillImage" />
        <dc:title></dc:title>
      </cc:Work>
    </rdf:RDF>
  </metadata>
  <g
     transform="translate(-13.301776,-42.97399)"
     id="layer1">
    <g
       id="g4554"
       transform="matrix(0.35277777,0,0,-0.35277777,-1.6591767,94.515881)">
      <g
         clip-path="url(#clipPath4560)"
         id="g4556">
        <g
           transform="translate(389.6422,99.6617)"
           id="g4562">
          <path
             id="path4564"
             style="fill:#ea5b0b;fill-opacity:1;fill-rule:nonzero;stroke:none"
             d="m 0,0 c -9.801,2.754 -11.524,4.17 -11.524,9.47 0,6.604 2.024,7.702 6.234,7.702 2.804,0 7.047,-0.075 8.744,-0.289 L 3.562,5.772 c 0,-0.467 0.379,-0.846 0.847,-0.846 h 17.752 c 0.468,0 0.846,0.379 0.846,0.846 v 24.411 c 0,0.377 -0.249,0.708 -0.61,0.813 -4.058,1.175 -17.275,2.246 -27.461,2.246 -21.411,0 -27.939,-6.352 -27.939,-24.546 0,-18.251 4.716,-21.52 24.889,-27.574 10.332,-3.052 11.761,-4.284 11.761,-10.139 0,-7.665 -1.19,-7.418 -8.598,-7.418 -2.111,0 -5.617,0.276 -7.472,0.507 l -0.113,10.98 c 0,0.467 -0.379,0.847 -0.846,0.847 h -17.306 c -0.467,0 -0.846,-0.38 -0.846,-0.847 v -24.498 c 0,-0.411 0.296,-0.763 0.7,-0.834 3.182,-0.559 13.213,-1.381 25.657,-1.381 24.052,0 30.638,4.229 30.638,24.081 C 25.461,-9.717 20.035,-5.648 0,0" />
        </g>
        <g
           transform="translate(531.7458,102.2301)"
           id="g4566">
          <path
             id="path4568"
             style="fill:#ea5b0b;fill-opacity:1;fill-rule:nonzero;stroke:none"
             d="m 0,0 -25.147,-13.113 c -0.081,-0.042 -0.17,-0.063 -0.258,-0.063 -0.102,0 -0.204,0.028 -0.294,0.084 -0.168,0.104 -0.27,0.288 -0.27,0.488 v 27.588 c 0,0.203 0.107,0.391 0.28,0.493 0.174,0.103 0.388,0.104 0.563,0.003 L 0.021,1.005 C 0.2,0.902 0.31,0.707 0.306,0.497 0.302,0.287 0.184,0.097 0,0 m 8.436,24.609 c -3.455,3.915 -8.653,5.512 -17.943,5.512 h -36.857 c -0.467,0 -0.846,-0.384 -0.846,-0.858 V 13.012 c 0,-0.473 0.379,-0.857 0.846,-0.857 h 3.47 l -0.063,-48.715 h -3.407 c -0.467,0 -0.846,-0.384 -0.846,-0.857 V -53.22 c 0,-0.473 0.379,-0.857 0.846,-0.857 h 32.697 c 0.468,0 0.847,0.384 0.847,0.857 v 15.241 c 0,0.473 -0.379,0.857 -0.847,0.857 h -7.472 v 9.157 h 11.407 c 9.161,0 14.561,1.699 18.058,5.68 3.802,4.33 5.497,11.587 5.497,23.531 0,11.936 -1.662,19.141 -5.387,23.363" />
        </g>
        <g
           transform="translate(478.2054,92.2784)"
           id="g4570">
          <path
             id="path4572"
             style="fill:#ea5b0b;fill-opacity:1;fill-rule:nonzero;stroke:none"
             d="m 0,0 h -3.321 l 0.001,-0.01 -23.757,0.053 c -0.468,0 -0.847,-0.38 -0.847,-0.847 V -15.83 c 0,-0.467 0.379,-0.846 0.847,-0.846 l 5.665,-0.017 v -10.933 c -1.836,-0.219 -4.874,-0.318 -6.791,-0.318 -6.517,0 -8.484,0 -8.484,20.388 V 2.839 c 0,20.61 1.749,20.61 8.259,20.61 2.391,0 5.335,-0.037 6.892,-0.187 l 0.02,-10.107 c 0,-0.467 0.379,-0.846 0.846,-0.846 h 17.875 c 0.467,0 0.846,0.379 0.846,0.846 v 24.521 c 0,0.398 -0.277,0.742 -0.665,0.827 -2.952,0.646 -16.85,2.012 -25.365,2.012 -25.29,0 -30.75,-7.554 -30.75,-42.543 0,-19.146 1.702,-28.888 6.07,-34.749 4.835,-6.488 12.99,-7.5 24.504,-7.5 8.56,0 20.225,0.628 25.53,1.716 0.394,0.082 0.676,0.428 0.676,0.829 v 25.039 H 0 c 0.467,0 0.846,0.379 0.846,0.846 V -0.846 C 0.846,-0.379 0.467,0 0,0" />
        </g>
      </g>
    </g>
    <g
       id="g4574"
       transform="matrix(0.35277777,0,0,-0.35277777,-1.6591767,94.515881)">
      <g
         clip-path="url(#clipPath4580)"
         id="g4576">
        <g
           transform="translate(42.4086,119.4904)"
           id="g4582">
          <path
             id="path4584"
             style="fill:#0c2c65;fill-opacity:1;fill-rule:nonzero;stroke:none"
             d="m 0,0 c 0,14.97 11.333,25.07 26.233,25.07 11.698,0 17.95,-6.611 21.145,-13.005 L 36.624,6.976 c -1.598,3.852 -5.74,7.05 -10.391,7.05 C 18.31,14.026 12.715,7.924 12.715,0 c 0,-7.921 5.595,-14.023 13.518,-14.023 4.651,0 8.793,3.195 10.391,7.047 l 10.754,-5.086 C 44.254,-18.31 37.931,-25.07 26.233,-25.07 11.333,-25.07 0,-14.896 0,0" />
        </g>
        <g
           transform="translate(118.7355,115.7124)"
           id="g4586">
          <path
             id="path4588"
             style="fill:#0c2c65;fill-opacity:1;fill-rule:nonzero;stroke:none"
             d="m 0,0 c 0,4.287 -2.252,5.669 -5.813,5.669 -3.27,0 -5.45,-1.817 -6.758,-3.417 V -20.42 h -11.192 v 48.469 h 11.192 V 10.393 c 2.106,2.47 6.248,5.157 12.136,5.157 7.991,0 11.627,-4.503 11.627,-10.973 V -20.42 H 0 Z" />
        </g>
        <g
           transform="translate(138.0902,130.3927)"
           id="g4590">
          <path
             id="path4592"
             style="fill:#0c2c65;fill-opacity:1;fill-rule:nonzero;stroke:none"
             d="m 0,0 h 11.189 v -4.434 c 2.326,2.833 6.757,5.304 10.974,5.304 V -9.955 c -0.654,0.216 -1.598,0.36 -2.76,0.36 -2.909,0 -6.762,-1.233 -8.214,-3.269 V -35.1 H 0 Z" />
        </g>
        <path
           id="path4594"
           style="fill:#0c2c65;fill-opacity:1;fill-rule:nonzero;stroke:none"
           d="m 165.356,130.393 h 11.189 v -35.1 h -11.189 z m -0.801,9.591 c 0,3.559 2.834,6.394 6.395,6.394 3.56,0 6.393,-2.835 6.393,-6.394 0,-3.562 -2.833,-6.467 -6.393,-6.467 -3.561,0 -6.395,2.905 -6.395,6.467" />
        <g
           transform="translate(186.3643,107.5025)"
           id="g4596">
          <path
             id="path4598"
             style="fill:#0c2c65;fill-opacity:1;fill-rule:nonzero;stroke:none"
             d="m 0,0 c 2.618,-2.325 8.213,-4.65 12.355,-4.65 3.342,0 4.724,1.087 4.724,2.685 0,1.672 -2.688,2.181 -6.032,2.763 -5.959,0.945 -14.388,2.327 -14.388,11.408 0,6.178 5.306,11.554 15.042,11.554 5.888,0 10.9,-1.888 14.68,-4.652 l -4.29,-7.41 c -2.106,2.036 -6.103,3.852 -10.317,3.852 -2.617,0 -4.434,-1.092 -4.434,-2.47 0,-1.528 1.89,-1.817 5.597,-2.471 5.959,-1.091 14.823,-2.544 14.823,-12.064 0,-6.686 -5.885,-11.628 -15.986,-11.628 -6.251,0 -12.718,2.11 -16.424,5.378 z" />
        </g>
        <g
           transform="translate(222.2129,104.7393)"
           id="g4600">
          <path
             id="path4602"
             style="fill:#0c2c65;fill-opacity:1;fill-rule:nonzero;stroke:none"
             d="m 0,0 v 15.913 h -5.816 v 9.741 H 0 v 9.591 H 11.117 V 25.654 H 18.24 V 15.913 H 11.117 V 3.125 c 0,-2.033 1.164,-3.56 3.125,-3.56 1.235,0 2.471,0.435 2.834,0.873 l 2.181,-8.432 C 17.875,-9.302 15.112,-10.319 10.97,-10.319 3.849,-10.319 0,-6.757 0,0" />
        </g>
        <g
           transform="translate(255.2151,116.5853)"
           id="g4604">
          <path
             id="path4606"
             style="fill:#0c2c65;fill-opacity:1;fill-rule:nonzero;stroke:none"
             d="M 0,0 H 14.461 C 14.172,2.471 12.355,6.029 7.195,6.029 2.325,6.029 0.438,2.544 0,0 m 7.195,14.677 c 10.394,0 17.95,-7.629 17.95,-19.546 v -2.398 h -25 c 0.656,-3.271 3.707,-6.251 8.941,-6.251 3.123,0 6.611,1.237 8.573,2.98 l 4.726,-6.976 c -3.49,-3.125 -9.302,-4.652 -14.68,-4.652 -10.83,0 -19.187,7.051 -19.187,18.459 0,10.174 7.705,18.384 18.677,18.384" />
        </g>
        <g
           transform="translate(309.6638,115.5675)"
           id="g4608">
          <path
             id="path4610"
             style="fill:#0c2c65;fill-opacity:1;fill-rule:nonzero;stroke:none"
             d="m 0,0 c 0,4.287 -2.252,5.813 -5.74,5.813 -3.343,0 -5.523,-1.817 -6.831,-3.417 v -22.67 H -23.76 v 35.1 h 11.189 v -4.288 c 2.106,2.471 6.248,5.156 12.136,5.156 7.994,0 11.627,-4.65 11.627,-11.117 V -20.274 H 0 Z" />
        </g>
        <g
           transform="translate(105.8954,83.9972)"
           id="g4612">
          <path
             id="path4614"
             style="fill:#009fe3;fill-opacity:1;fill-rule:nonzero;stroke:none"
             d="m 0,0 h 12.75 v -28.489 c 0,-5.754 3.426,-9.907 10.274,-9.907 6.701,0 10.198,4.153 10.198,9.907 V 0 h 12.679 v -28.853 c 0,-12.093 -7.36,-20.618 -22.877,-20.618 C 7.36,-49.471 0,-40.872 0,-28.924 Z" />
        </g>
        <g
           transform="translate(184.1011,55.7288)"
           id="g4616">
          <path
             id="path4618"
             style="fill:#009fe3;fill-opacity:1;fill-rule:nonzero;stroke:none"
             d="m 0,0 c 0,4.298 -2.258,5.828 -5.754,5.828 -3.352,0 -5.539,-1.821 -6.85,-3.422 v -22.734 h -11.218 v 35.193 h 11.218 v -4.303 c 2.112,2.48 6.265,5.174 12.167,5.174 8.016,0 11.658,-4.664 11.658,-11.147 V -20.328 H 0 Z" />
        </g>
        <path
           id="path4620"
           style="fill:#009fe3;fill-opacity:1;fill-rule:nonzero;stroke:none"
           d="m 203.504,70.593 h 11.221 V 35.402 h -11.221 z m -0.801,9.616 c 0,3.572 2.841,6.41 6.413,6.41 3.569,0 6.41,-2.838 6.41,-6.41 0,-3.572 -2.841,-6.483 -6.41,-6.483 -3.572,0 -6.413,2.911 -6.413,6.483" />
        <g
           transform="translate(232.0747,56.7491)"
           id="g4622">
          <path
             id="path4624"
             style="fill:#009fe3;fill-opacity:1;fill-rule:nonzero;stroke:none"
             d="M 0,0 H 14.499 C 14.209,2.477 12.386,6.048 7.214,6.048 2.331,6.048 0.44,2.549 0,0 m 7.214,14.716 c 10.417,0 17.997,-7.65 17.997,-19.599 V -7.285 H 0.148 c 0.656,-3.28 3.715,-6.269 8.961,-6.269 3.133,0 6.63,1.241 8.597,2.989 l 4.737,-6.995 c -3.498,-3.133 -9.326,-4.663 -14.719,-4.663 -10.856,0 -19.233,7.069 -19.233,18.506 0,10.2 7.721,18.433 18.723,18.433" />
        </g>
      </g>
    </g>
  </g>
</svg>
