<?xml version="1.0" encoding="UTF-8" standalone="no"?>
<svg
   xmlns:dc="http://purl.org/dc/elements/1.1/"
   xmlns:cc="http://creativecommons.org/ns#"
   xmlns:rdf="http://www.w3.org/1999/02/22-rdf-syntax-ns#"
   xmlns:svg="http://www.w3.org/2000/svg"
   xmlns="http://www.w3.org/2000/svg"
   id="svg10483"
   version="1.1"
   viewBox="0 0 68.85376 46.566669"
   height="46.566669mm"
   width="68.85376mm">
  <defs
     id="defs10477">
    <clipPath
       id="clipPath9725"
       clipPathUnits="userSpaceOnUse">
      <path
         id="path9723"
         d="M 0,0 H 595.276 V 765.354 H 0 Z" />
    </clipPath>
  </defs>
  <metadata
     id="metadata10480">
    <rdf:RDF>
      <cc:Work
         rdf:about="">
        <dc:format>image/svg+xml</dc:format>
        <dc:type
           rdf:resource="http://purl.org/dc/dcmitype/StillImage" />
        <dc:title></dc:title>
      </cc:Work>
    </rdf:RDF>
  </metadata>
  <g
     transform="translate(215.0995,-130.08571)"
     id="layer1">
    <path
       id="path9717"
       style="fill:#00ae41;fill-opacity:1;fill-rule:nonzero;stroke:none;stroke-width:0.35277775"
       d="m -215.0995,176.65238 h 68.85376 v -46.56667 h -68.85376 z" />
    <g
       id="g9719"
       transform="matrix(0.35277777,0,0,-0.35277777,-215.0995,353.51892)">
      <g
         clip-path="url(#clipPath9725)"
         id="g9721">
        <g
           transform="translate(172.2839,582.4789)"
           id="g9727">
          <path
             id="path9729"
             style="fill:#ffffff;fill-opacity:1;fill-rule:nonzero;stroke:none"
             d="m 0,0 c -1.331,10.319 -8.821,16.143 -18.889,16.143 -16.557,0 -22.882,-16.143 -22.882,-30.455 0,-14.728 4.742,-30.12 22.384,-30.12 12.148,0 20.387,9.402 20.387,21.301 0,4.66 -1.416,9.401 -4.495,12.98 -3.328,3.661 -8.404,5.992 -13.397,5.992 -5.659,0 -9.901,-1.831 -13.147,-6.491 l -0.165,0.166 c 0.25,6.407 2.661,17.723 11.148,17.723 4.079,0 7.074,-3.328 7.823,-7.239 z m -19.721,-13.063 c 6.075,0 8.903,-5.492 8.903,-10.983 0,-5.327 -3.244,-10.651 -8.903,-10.651 -5.99,0 -9.402,5.408 -9.402,10.816 0,5.743 3.077,10.818 9.402,10.818 M -47.928,0 c -1.331,10.319 -8.82,16.143 -18.889,16.143 -16.558,0 -22.882,-16.143 -22.882,-30.455 0,-14.728 4.743,-30.12 22.382,-30.12 12.149,0 20.387,9.402 20.387,21.301 0,4.66 -1.415,9.401 -4.493,12.98 -3.328,3.661 -8.404,5.992 -13.397,5.992 -5.658,0 -9.901,-1.831 -13.146,-6.491 l -0.168,0.166 c 0.25,6.407 2.664,17.723 11.151,17.723 4.077,0 7.073,-3.328 7.822,-7.239 z M -67.65,-13.063 c 6.076,0 8.905,-5.492 8.905,-10.983 0,-5.327 -3.246,-10.651 -8.905,-10.651 -5.99,0 -9.402,5.408 -9.402,10.816 0,5.743 3.08,10.818 9.402,10.818 m -81.376,-30.205 h 25.627 c 18.141,0 26.96,12.815 26.96,30.038 0,19.638 -11.565,29.373 -26.96,29.373 h -25.627 z m 13.063,48.427 h 9.319 c 12.898,0 17.141,-7.656 17.141,-19.638 0,-13.146 -7.238,-17.805 -14.81,-17.805 h -11.65 z" />
        </g>
      </g>
    </g>
  </g>
</svg>
