<?xml version="1.0" encoding="UTF-8"?>
<!-- Generator: Adobe Illustrator 14.0.0, SVG Export Plug-In . SVG Version: 6.00 Build 43363)  -->
<!DOCTYPE svg PUBLIC "-//W3C//DTD SVG 1.1//EN" "http://www.w3.org/Graphics/SVG/1.1/DTD/svg11.dtd">
<svg version="1.1" id="Laag_1" xmlns="http://www.w3.org/2000/svg" xmlns:xlink="http://www.w3.org/1999/xlink" x="0px" y="0px" width="300px" height="100px" viewBox="0 0 300 100" enable-background="new 0 0 300 100" xml:space="preserve">
<path fill="#FFD611" d="M189.459,85.003c0-13.86,11.822-25.098,26.406-25.098c14.583,0,26.405,11.237,26.405,25.098H189.459z"/>
<path fill="#FFD611" d="M184.052,85.003h-46.767c0,0,15.589-7.281,16.066-7.281c0.478,0,2.388-4.136,11.612,0  c9.226,4.135,12.407,0.954,12.407,0.954S182.779,79.241,184.052,85.003z"/>
<path fill="#FFD611" d="M247.042,85.003h49.471c0,0-19.247-6.645-20.36-7.759c-1.114-1.113-6.683-4.948-13.204-1.36  c0,0-7.793,2.155-10.18,2.792C250.383,79.313,246.407,80.833,247.042,85.003z"/>
<path fill="#FFD611" d="M245.451,68.654c0,0-3.977,4.931,0.795,6.521h9.704c0,0,2.386,0.58,4.295-1.857  c1.908-2.438,16.861-13.413,21.474-15.799c0,0,1.114-1.75-3.34-0.795c0,0-19.088,2.533-20.838,1.982c0,0-3.181-0.87-5.249,1.198  C252.292,59.905,246.495,66.929,245.451,68.654z"/>
<path fill="#FFD611" d="M234.819,56.965c0,0-2.521,5.812,2.503,6.075l9.353-2.584c0,0,2.454-0.076,3.646-2.934  c1.191-2.858,12.683-17.417,16.494-20.946c0,0,0.608-1.982-3.432,0.123c0,0-17.724,7.523-19.558,7.458c0,0-3.298,0.008-4.741,2.553  C239.084,46.71,235.367,55.023,234.819,56.965z"/>
<path fill="#FFD611" d="M219.33,53.583c0,0,1.841,6.062,5.839,3.01l5.459-8.022c0,0,1.82-1.647,0.879-4.597  c-0.941-2.949-1.606-21.485-0.984-26.642c0,0-0.821-1.905-2.537,2.314c0,0-8.641,17.207-10.081,18.345c0,0-2.508,2.141-1.961,5.014  C215.943,43.006,218.49,51.749,219.33,53.583z"/>
<path fill="#FFD611" d="M203.98,55.518c0,0,4.512,4.445,6.568-0.145l0.961-9.656c0,0,0.813-2.317-1.424-4.459  c-2.235-2.14-11.678-18.106-13.595-22.932c0,0-1.63-1.283-1.121,3.244c0,0,0.631,19.245-0.093,20.933c0,0-1.179,3.078,0.675,5.34  C195.952,47.844,202.366,54.308,203.98,55.518z"/>
<path fill="#FFD611" d="M192.559,62.481c0,0,6.145,1.544,5.588-3.456l-4.067-8.81c0,0-0.475-2.409-3.486-3.121  c-3.014-0.711-19.247-9.686-23.346-12.873c0,0-2.056-0.278,0.678,3.366c0,0,10.302,16.268,10.535,18.088  c0,0,0.544,3.252,3.288,4.263C181.748,59.938,190.555,62.257,192.559,62.481z"/>
<path fill="#FFD611" d="M184.319,75.979c0,0,6.312-0.531,4.165-5.081l-6.704-7.015c0,0-1.229-2.126-4.31-1.821  c-3.082,0.304-21.347-2.924-26.259-4.611c0,0-2.035,0.403,1.732,2.965c0,0,15.02,12.05,15.83,13.695c0,0,1.568,2.9,4.493,2.967  C173.268,77.078,182.35,76.417,184.319,75.979z"/>
<g>
	<g>
		<path fill="#00BA00" d="M10.411,62.274h9.122c1.798,0,3.171,0.22,4.12,0.661c0.948,0.44,1.636,1.074,2.061,1.899    c0.426,0.824,0.605,1.785,0.536,2.879c-0.069,1.095-0.324,2.254-0.765,3.479c-0.69,1.92-1.469,3.409-2.333,4.467    c-0.865,1.058-1.855,1.943-2.971,2.659c-1.116,0.715-2.209,1.189-3.279,1.427c-1.464,0.327-2.743,0.49-3.836,0.49H3.945    L10.411,62.274z M15.087,66.341l-3.534,9.814h1.504c1.283,0,2.243-0.128,2.876-0.386c0.636-0.258,1.222-0.706,1.76-1.348    s1.066-1.681,1.584-3.118c0.685-1.903,0.81-3.206,0.377-3.909c-0.435-0.701-1.447-1.054-3.037-1.054H15.087z"/>
		<path fill="#00BA00" d="M31.909,62.274h16.455l-1.38,3.835H36.682l-1.028,2.854h9.556l-1.319,3.663h-9.556l-1.275,3.541h10.6    l-1.464,4.067H25.443L31.909,62.274z"/>
		<path fill="#00BA00" d="M67.092,73.729l1.345-3.736h9.488l-2.757,7.657c-2.218,1.119-4.1,1.881-5.642,2.285    c-1.542,0.405-3.27,0.606-5.186,0.606c-2.358,0-4.15-0.362-5.374-1.09c-1.225-0.727-1.988-1.809-2.288-3.246    c-0.299-1.438-0.115-3.088,0.556-4.951c0.706-1.96,1.767-3.665,3.184-5.115c1.417-1.449,3.123-2.55,5.119-3.301    c1.556-0.58,3.472-0.871,5.749-0.871c2.196,0,3.773,0.18,4.732,0.54c0.959,0.359,1.663,0.917,2.109,1.672    c0.446,0.756,0.642,1.714,0.585,2.874l-6.268,0.955c0-0.678-0.227-1.196-0.68-1.556c-0.454-0.359-1.131-0.54-2.036-0.54    c-1.346,0-2.572,0.424-3.676,1.269c-1.104,0.846-1.985,2.183-2.645,4.012c-0.7,1.944-0.795,3.334-0.286,4.167    c0.509,0.832,1.486,1.249,2.932,1.249c0.687,0,1.375-0.09,2.063-0.27c0.688-0.18,1.512-0.486,2.473-0.919l0.608-1.691H67.092z"/>
		<path fill="#00BA00" d="M77.966,80.235l6.466-17.961h10.233c1.897,0,3.296,0.146,4.193,0.441c0.897,0.293,1.509,0.839,1.837,1.636    c0.327,0.796,0.286,1.766-0.126,2.909c-0.359,0.996-0.903,1.855-1.634,2.579c-0.73,0.723-1.588,1.308-2.572,1.758    c-0.627,0.286-1.432,0.523-2.412,0.71c0.651,0.222,1.105,0.442,1.36,0.663c0.173,0.147,0.387,0.461,0.642,0.944    c0.255,0.481,0.408,0.854,0.458,1.115l1.099,5.205h-6.938l-1.306-5.489c-0.16-0.71-0.364-1.171-0.612-1.385    c-0.344-0.277-0.796-0.417-1.356-0.417h-0.542l-2.624,7.291H77.966z M87.979,69.551h2.588c0.281,0,0.852-0.081,1.715-0.244    c0.433-0.073,0.833-0.262,1.199-0.563c0.367-0.302,0.621-0.649,0.762-1.041c0.208-0.58,0.166-1.025-0.13-1.336    c-0.295-0.311-1.002-0.466-2.123-0.466h-2.697L87.979,69.551z"/>
		<path fill="#00BA00" d="M101.458,71.266c1.055-2.931,2.781-5.214,5.177-6.848c2.395-1.634,5.206-2.451,8.432-2.451    c3.308,0,5.567,0.803,6.778,2.408c1.211,1.605,1.297,3.854,0.256,6.745c-0.755,2.099-1.766,3.82-3.031,5.163    c-1.266,1.345-2.772,2.39-4.519,3.138c-1.746,0.746-3.722,1.12-5.927,1.12c-2.241,0-3.979-0.322-5.216-0.968    c-1.236-0.645-2.059-1.665-2.469-3.063C100.53,75.113,100.703,73.366,101.458,71.266z M107.589,71.291    c-0.652,1.813-0.749,3.117-0.288,3.908c0.46,0.792,1.332,1.188,2.615,1.188c1.319,0,2.479-0.388,3.482-1.163    c1.002-0.776,1.865-2.169,2.588-4.179c0.608-1.69,0.676-2.926,0.202-3.706c-0.474-0.779-1.356-1.17-2.648-1.17    c-1.239,0-2.375,0.396-3.411,1.189C109.096,68.151,108.249,69.462,107.589,71.291z"/>
		<path fill="#00BA00" d="M128.578,62.274h16.455l-1.38,3.835h-10.302l-1.028,2.854h9.556l-1.319,3.663h-9.556l-1.275,3.541h10.6    l-1.464,4.067h-16.753L128.578,62.274z"/>
		<path fill="#00BA00" d="M148.68,62.274h5.733l3.904,9.937l3.577-9.937h5.788l-6.465,17.961h-5.788l-3.892-9.862l-3.551,9.862    h-5.774L148.68,62.274z"/>
		<path fill="#00BA00" d="M171.749,62.274h16.455l-1.38,3.835h-10.302l-1.028,2.854h9.557l-1.319,3.663h-9.556l-1.274,3.541h10.6    l-1.464,4.067h-16.754L171.749,62.274z"/>
		<path fill="#00BA00" d="M191.851,62.274h5.734l3.904,9.937l3.577-9.937h5.788l-6.467,17.961H198.6l-3.891-9.862l-3.551,9.862    h-5.773L191.851,62.274z"/>
	</g>
</g>
</svg>