<?xml version="1.0" encoding="UTF-8" standalone="no"?>
<svg
   xmlns:dc="http://purl.org/dc/elements/1.1/"
   xmlns:cc="http://creativecommons.org/ns#"
   xmlns:rdf="http://www.w3.org/1999/02/22-rdf-syntax-ns#"
   xmlns:svg="http://www.w3.org/2000/svg"
   xmlns="http://www.w3.org/2000/svg"
   viewBox="0 0 117.0208 117.02106"
   height="117.02106"
   width="117.0208"
   xml:space="preserve"
   id="svg4485"
   version="1.1"><metadata
     id="metadata4491"><rdf:RDF><cc:Work
         rdf:about=""><dc:format>image/svg+xml</dc:format><dc:type
           rdf:resource="http://purl.org/dc/dcmitype/StillImage" /><dc:title></dc:title></cc:Work></rdf:RDF></metadata><defs
     id="defs4489"><clipPath
       id="clipPath4509"
       clipPathUnits="userSpaceOnUse"><path
         id="path4507"
         d="M 0,0 H 841.89 V 595.276 H 0 Z" /></clipPath><clipPath
       id="clipPath4573"
       clipPathUnits="userSpaceOnUse"><path
         id="path4571"
         d="m 697.431,93.251 h 87.766 v 87.766 h -87.766 z" /></clipPath><clipPath
       id="clipPath4573-3"
       clipPathUnits="userSpaceOnUse"><path
         id="path4571-6"
         d="m 697.431,93.251 h 87.766 v 87.766 h -87.766 z" /></clipPath></defs><g
     transform="matrix(1.3333333,0,0,-1.3333333,-937.5848,243.04607)"
     id="g4493"><g
       id="g4567"
       transform="translate(5.7572191,1.2675585)"><g
         clip-path="url(#clipPath4573-3)"
         id="g4569"><g
           transform="translate(711.2093,96.3424)"
           id="g4575"><path
             id="path4577"
             style="fill:#42bac1;fill-opacity:1;fill-rule:nonzero;stroke:none"
             d="m 0,0 c -5.893,0 -10.687,4.794 -10.687,10.687 v 60.209 c 0,5.893 4.794,10.687 10.687,10.687 h 60.209 c 5.893,0 10.687,-4.794 10.687,-10.687 V 10.687 C 70.896,4.794 66.102,0 60.209,0 Z" /></g><g
           transform="translate(771.4184,181.0172)"
           id="g4579"><path
             id="path4581"
             style="fill:#ffffff;fill-opacity:1;fill-rule:nonzero;stroke:none"
             d="m 0,0 h -60.209 c -7.597,0 -13.778,-6.181 -13.778,-13.778 v -60.21 c 0,-7.598 6.181,-13.778 13.778,-13.778 H 0 c 7.597,0 13.779,6.18 13.779,13.778 v 60.21 C 13.779,-6.181 7.597,0 0,0 m 0,-6.183 c 4.177,0 7.595,-3.418 7.595,-7.595 v -60.21 c 0,-4.177 -3.418,-7.595 -7.595,-7.595 h -60.209 c -4.177,0 -7.595,3.418 -7.595,7.595 v 60.21 c 0,4.177 3.418,7.595 7.595,7.595 H 0" /></g><g
           transform="translate(753.2577,138.1148)"
           id="g4583"><path
             id="path4585"
             style="fill:#ffffff;fill-opacity:1;fill-rule:nonzero;stroke:none"
             d="M 0,0 C 1.936,1.05 3.374,2.316 3.374,2.316 4.688,3.465 5.74,5.009 5.711,5.737 5.682,6.468 4.589,6.538 3.281,5.892 1.975,5.244 1.974,5.583 3.278,6.643 4.584,7.703 5.552,9.291 5.429,10.167 5.307,11.049 3.946,11.092 2.404,10.268 L 1.233,9.64 C -0.31,8.817 -0.405,8.973 1.015,9.991 l 1.46,1.04 c 1.42,1.018 2.121,2.396 1.555,3.068 -0.565,0.672 -2.208,0.706 -3.649,0.075 -1.438,-0.63 -1.414,-0.403 0.059,0.507 1.471,0.909 2.175,2.394 1.57,3.297 -0.609,0.906 -2.499,1.315 -4.199,0.911 l -2.414,-0.571 c -1.21,1.187 -4.569,4.06 -5.165,4.607 -0.861,0.794 -4.167,1.31 -4.898,1.675 -0.962,0.479 -1.894,-0.115 -3.388,-0.983 -1.247,-0.722 -2.914,-1.138 -2.967,-1.163 -0.412,-0.19 -0.323,-0.694 -0.111,-1.121 -1.162,0.146 -1.664,-0.137 -2.108,-0.476 -0.671,-0.519 -1.173,-1.483 -1.118,-2.14 0.055,-0.656 -0.333,-1.493 -0.866,-1.858 -0.534,-0.361 -0.837,-1.269 -0.673,-2.015 0.161,-0.746 -0.133,-1.704 -0.654,-2.127 -0.523,-0.425 -0.845,-1.313 -0.717,-1.973 0.13,-0.66 -0.213,-1.637 -0.764,-2.168 -0.549,-0.534 -0.845,-1.92 -0.656,-3.082 0.188,-1.161 1.705,-1.677 3.371,-1.15 l 3.221,1.02 c 1.665,0.53 3.198,1.25 3.796,1.733 0.595,0.483 0.001,1.048 -1.647,1.023 l -3.23,-0.107 c -1.553,0.022 -1.552,0.355 0.213,0.446 l 5.635,0.358 c 1.748,0.034 2.966,0.508 3.33,1.03 0.532,0.771 -0.045,1.31 -1.761,1.64 l -4.902,0.814 c -1.715,0.332 -1.428,0.589 0.312,0.437 l 6.628,-0.676 c 1.478,-0.103 2.359,0.291 2.495,1.276 0.136,0.967 -0.962,1.313 -2.638,1.798 l -4.5,1.055 c -1.686,0.373 -1.641,0.654 0.084,0.373 l 5.344,-0.492 c 1.458,-0.207 2.574,0.172 2.749,0.909 0.103,0.435 -0.175,1.397 -2.144,1.966 0,0 -1.284,0.405 -2.995,0.722 -1.181,0.219 -2.741,0.444 -2.741,0.444 -0.814,0.148 1.913,0.249 2.559,0.259 0.711,0.785 -0.319,2.266 -0.047,2.262 0.199,-0.002 1.053,-1.501 0.929,-1.959 -0.076,-0.28 0.018,-0.542 0.874,-0.306 0.592,0.165 1.078,0.695 1.312,0.656 0.138,-0.025 -0.793,-0.78 -0.437,-0.962 0.055,-0.028 2.012,-0.613 2.012,-0.613 1.552,-0.634 1.563,-1.28 1.82,-1.349 0.248,-0.064 1.793,-0.345 2.69,-0.315 -0.878,-0.466 -2.42,-0.416 -2.434,-0.935 -0.01,-0.421 0.198,-0.681 -0.065,-1.337 -0.323,-0.81 -0.962,-0.569 -1.224,-1.312 -0.149,-0.42 -0.017,-0.959 -0.219,-1.465 -0.525,-1.312 -1.172,-1.101 -1.774,-1.755 -0.51,-0.553 -0.313,-1.016 -0.825,-1.721 C -13.294,8.713 -14.313,8.31 -15.234,8.018 -15.898,7.809 -16.35,7.144 -17.099,6.47 -17.847,5.796 -19.645,4.893 -21.316,4.377 l -3.991,-1.265 c -3.268,-1.3 2.604,-3.487 4.584,-3.816 5.571,-0.926 10.997,-0.631 15.316,-0.201 C -2.374,-0.601 -1.267,-0.688 0,0" /></g><g
           transform="translate(709.9927,112.1807)"
           id="g4587"><path
             id="path4589"
             style="fill:#ffffff;fill-opacity:1;fill-rule:nonzero;stroke:none"
             d="m 0,0 c 0.827,0 1.546,0.15 2.16,0.451 0.614,0.3 1.134,0.688 1.56,1.165 0.425,0.475 0.744,1.02 0.957,1.634 0.213,0.613 0.32,1.245 0.32,1.898 0,0.601 -0.101,1.189 -0.301,1.765 C 4.495,7.489 4.189,7.996 3.776,8.435 3.362,8.873 2.837,9.23 2.198,9.506 1.559,9.781 0.814,9.919 -0.038,9.919 H -0.564 V 0 Z m -6.763,13.113 c 0,0.4 0.094,0.789 0.282,1.164 0.188,0.376 0.438,0.708 0.751,0.996 0.313,0.288 0.663,0.519 1.052,0.695 0.388,0.175 0.771,0.264 1.146,0.264 h 3.006 c 1.954,0 3.657,-0.326 5.109,-0.978 C 6.036,14.603 7.244,13.739 8.209,12.662 9.174,11.584 9.9,10.37 10.388,9.017 10.877,7.665 11.121,6.274 11.121,4.847 11.121,3.444 10.889,2.079 10.426,0.751 9.962,-0.576 9.261,-1.754 8.322,-2.78 7.382,-3.808 6.218,-4.64 4.828,-5.279 3.438,-5.918 1.816,-6.237 -0.038,-6.237 h -3.494 c -0.977,0 -1.76,0.282 -2.348,0.845 -0.589,0.564 -0.883,1.321 -0.883,2.273 z" /></g><g
           transform="translate(726.2988,105.9434)"
           id="g4591"><path
             id="path4593"
             style="fill:#ffffff;fill-opacity:1;fill-rule:nonzero;stroke:none"
             d="M 0,0 C -2.054,0 -3.081,1.039 -3.081,3.119 V 19.35 c 0,2.079 1.027,3.119 3.081,3.119 h 10.521 c 0.976,0 1.74,-0.307 2.291,-0.921 0.551,-0.614 0.827,-1.347 0.827,-2.198 0,-0.852 -0.276,-1.585 -0.827,-2.198 -0.551,-0.614 -1.315,-0.92 -2.291,-0.92 h -7.44 v -1.879 h 5.937 c 0.976,0 1.74,-0.307 2.291,-0.921 0.551,-0.614 0.827,-1.346 0.827,-2.197 0,-0.853 -0.276,-1.585 -0.827,-2.199 C 10.758,8.422 9.994,8.116 9.018,8.116 H 3.081 V 6.237 h 7.44 c 0.976,0 1.74,-0.307 2.291,-0.92 0.551,-0.615 0.827,-1.347 0.827,-2.198 0,-0.852 -0.276,-1.584 -0.827,-2.198 C 12.261,0.306 11.497,0 10.521,0 Z" /></g><g
           transform="translate(748.6541,109.062)"
           id="g4595"><path
             id="path4597"
             style="fill:#ffffff;fill-opacity:1;fill-rule:nonzero;stroke:none"
             d="m 0,0 c 0,-1.002 -0.307,-1.766 -0.921,-2.292 -0.614,-0.526 -1.346,-0.789 -2.198,-0.789 -0.826,0 -1.546,0.263 -2.16,0.789 -0.614,0.526 -0.92,1.29 -0.92,2.292 v 16.231 c 0,1.002 0.306,1.766 0.92,2.292 0.614,0.527 1.334,0.789 2.16,0.789 h 0.151 c 1.102,0 1.891,-0.463 2.367,-1.39 L 5.034,9.393 v 6.838 c 0,1.002 0.307,1.766 0.921,2.292 0.614,0.527 1.334,0.789 2.161,0.789 0.851,0 1.584,-0.262 2.198,-0.789 0.614,-0.526 0.92,-1.29 0.92,-2.292 V 0 c 0,-1.002 -0.306,-1.766 -0.92,-2.292 C 9.7,-2.818 8.967,-3.081 8.116,-3.081 c -0.426,0 -0.789,0.05 -1.09,0.15 -0.3,0.1 -0.557,0.226 -0.77,0.376 -0.214,0.15 -0.382,0.301 -0.507,0.451 -0.126,0.15 -0.226,0.275 -0.301,0.375 L 0,6.387 Z" /></g><g
           transform="translate(768.6797,109.062)"
           id="g4599"><path
             id="path4601"
             style="fill:#ffffff;fill-opacity:1;fill-rule:nonzero;stroke:none"
             d="m 0,0 c 0,-1.002 -0.307,-1.766 -0.921,-2.292 -0.613,-0.526 -1.333,-0.789 -2.16,-0.789 -0.852,0 -1.584,0.263 -2.198,0.789 -0.614,0.526 -0.92,1.29 -0.92,2.292 v 16.231 c 0,1.002 0.306,1.766 0.92,2.292 0.614,0.527 1.346,0.789 2.198,0.789 0.827,0 1.547,-0.262 2.16,-0.789 C -0.307,17.997 0,17.233 0,16.231 v -5.147 l 5.035,7.176 c 0.35,0.376 0.714,0.664 1.09,0.864 0.376,0.201 0.814,0.301 1.315,0.301 0.425,0 0.832,-0.088 1.221,-0.263 0.388,-0.176 0.732,-0.401 1.033,-0.676 0.301,-0.276 0.538,-0.608 0.714,-0.996 0.175,-0.388 0.263,-0.783 0.263,-1.184 0,-0.727 -0.239,-1.365 -0.714,-1.915 L 4.471,8.228 9.957,1.954 C 10.458,1.378 10.708,0.726 10.708,0 c 0,-0.426 -0.093,-0.826 -0.281,-1.202 C 10.239,-1.578 9.995,-1.904 9.694,-2.179 9.393,-2.455 9.049,-2.681 8.661,-2.855 8.272,-3.031 7.878,-3.119 7.477,-3.119 c -0.952,0 -1.753,0.401 -2.405,1.203 L 0,5.147 Z" /></g></g></g></g></svg>