<?xml version="1.0" encoding="UTF-8" standalone="no"?>
<svg
   xmlns:dc="http://purl.org/dc/elements/1.1/"
   xmlns:cc="http://creativecommons.org/ns#"
   xmlns:rdf="http://www.w3.org/1999/02/22-rdf-syntax-ns#"
   xmlns:svg="http://www.w3.org/2000/svg"
   xmlns="http://www.w3.org/2000/svg"
   id="svg6152"
   version="1.1"
   viewBox="0 0 87.260017 19.90679"
   height="19.90679mm"
   width="87.260017mm">
  <defs
     id="defs6146" />
  <metadata
     id="metadata6149">
    <rdf:RDF>
      <cc:Work
         rdf:about="">
        <dc:format>image/svg+xml</dc:format>
        <dc:type
           rdf:resource="http://purl.org/dc/dcmitype/StillImage" />
        <dc:title></dc:title>
      </cc:Work>
    </rdf:RDF>
  </metadata>
  <g
     transform="translate(-87.905704,-193.30851)"
     id="layer1">
    <path
       id="path4514"
       d="m 97.8591,193.30851 a 9.9533908,9.9533908 0 0 0 -9.953396,9.95339 9.9533908,9.9533908 0 0 0 9.953396,9.9534 9.9533908,9.9533908 0 0 0 9.9534,-9.9534 9.9533908,9.9533908 0 0 0 -9.9534,-9.95339 z m -0.0025,2.91098 0.26513,0.10717 c 0.28035,0.11335 0.60832,0.24739 1.09642,0.4481 0.163301,0.0672 0.434971,0.17821 0.603708,0.24676 0.168741,0.0686 0.418142,0.1707 0.554222,0.22701 0.13608,0.0563 0.36321,0.14974 0.50474,0.20761 0.57156,0.23367 0.80822,0.33084 1.15793,0.47543 0.2014,0.0833 0.43299,0.17801 0.51464,0.21058 0.0816,0.0326 0.24197,0.0982 0.35629,0.14578 0.1143,0.0476 0.28799,0.11926 0.38597,0.15921 0.34513,0.1407 0.69461,0.2841 0.86103,0.3533 l 0.16824,0.07 0.006,0.20864 0.006,0.20868 h -6.483055 -6.483087 v -0.20331 -0.20331 l 0.27216,-0.11285 c 0.14969,-0.0621 0.414677,-0.17122 0.588864,-0.24254 0.575429,-0.23562 0.808416,-0.33127 1.088651,-0.44699 0.152412,-0.0629 0.432985,-0.17765 0.623501,-0.25492 0.190516,-0.0773 0.439913,-0.17953 0.554223,-0.22728 0.114309,-0.0477 0.3548,-0.1466 0.534428,-0.2197 0.179628,-0.0731 0.429032,-0.17545 0.554226,-0.22747 0.125197,-0.052 0.307791,-0.12729 0.405765,-0.16724 0.321606,-0.13113 0.786669,-0.32133 1.078762,-0.44118 0.157854,-0.0648 0.399313,-0.16361 0.536551,-0.21963 z m -5.605834,3.51361 h 5.611508 5.611506 v 0.25241 0.25245 l -5.609068,0.005 c -3.931102,0.004 -5.611483,-0.001 -5.617112,-0.0161 -0.0044,-0.0115 -0.0055,-0.12732 -0.0023,-0.25732 z m 5.057287,1.03875 4.9e-5,0.22708 v 0.22713 l -0.138553,0.15406 -0.138515,0.15405 v 0.1188 c 2.1e-5,0.0653 0.0085,0.23464 0.01891,0.37616 0.01037,0.14153 0.02836,0.43547 0.03986,0.65319 0.0182,0.34415 0.05674,0.9885 0.09,1.50432 0.04482,0.6951 0.08805,1.4372 0.09282,1.59343 l 0.0058,0.188 -0.854756,0.005 c -0.470129,0.003 -0.859091,-0.002 -0.864351,-0.0103 -0.0053,-0.008 0.0025,-0.19786 0.01757,-0.42081 0.01492,-0.22295 0.03653,-0.57458 0.04798,-0.78142 0.02463,-0.44439 0.06578,-1.12793 0.119609,-1.98927 0.02141,-0.34292 0.04384,-0.71702 0.04987,-0.83133 0.006,-0.11431 0.01556,-0.24792 0.02113,-0.29691 0.0099,-0.0878 0.0079,-0.0915 -0.139943,-0.25728 l -0.150005,-0.16819 0.0055,-0.21777 0.0055,-0.21777 0.885769,-0.005 z m -4.592133,7.1e-4 h 0.890522 0.890714 l -7.67e-4,0.23258 -7.68e-4,0.23258 -0.140066,0.14845 -0.140024,0.14845 0.01148,0.22763 c 0.0224,0.44404 0.16125,2.76062 0.222103,3.70672 0.01665,0.25875 0.02486,0.47921 0.01824,0.48989 -0.0142,0.023 -1.704598,0.0275 -1.718761,0.005 -0.0051,-0.008 -0.0016,-0.12176 0.008,-0.25237 0.0095,-0.13062 0.02676,-0.40223 0.03839,-0.60363 0.01167,-0.2014 0.03404,-0.57996 0.04971,-0.84123 0.01567,-0.26128 0.03337,-0.56412 0.03951,-0.67299 0.0061,-0.10886 0.01972,-0.33599 0.03026,-0.50474 0.0105,-0.16874 0.03252,-0.53393 0.0489,-0.81154 0.01641,-0.2776 0.03489,-0.55405 0.0411,-0.61429 l 0.01128,-0.10958 -0.149725,-0.16759 -0.149845,-0.16755 v -0.22268 z m 5.621404,0 h 0.890711 0.890725 v 0.22496 0.22496 l -0.140575,0.15607 -0.140599,0.15607 0.01277,0.3167 c 0.007,0.17419 0.01693,0.37014 0.02201,0.43546 0.0052,0.0653 0.0224,0.33699 0.03855,0.60371 0.01609,0.26672 0.04733,0.77888 0.06939,1.13813 0.02205,0.35926 0.05293,0.86252 0.06858,1.11835 0.0157,0.25583 0.0311,0.54531 0.0343,0.6433 l 0.006,0.17814 -0.854768,0.005 c -0.470132,0.003 -0.858633,-0.002 -0.863349,-0.01 -0.0047,-0.008 0.0028,-0.21099 0.01715,-0.4505 0.05141,-0.87035 0.06938,-1.1705 0.07844,-1.30638 0.01394,-0.20924 0.08426,-1.35916 0.117993,-1.92989 0.01641,-0.2776 0.03408,-0.55517 0.03927,-0.61681 l 0.0094,-0.11207 -0.147987,-0.16369 -0.147955,-0.16368 v -0.22403 z m 2.810706,0 h 0.89071 0.89072 v 0.22338 0.22342 l -0.14815,0.16646 -0.14818,0.16647 0.01,0.10002 c 0.005,0.055 0.0229,0.31827 0.039,0.58499 0.0297,0.49253 0.0937,1.54041 0.12816,2.09812 0.0104,0.16875 0.0287,0.48495 0.0407,0.70268 0.012,0.21773 0.0296,0.51108 0.0392,0.65188 0.01,0.14081 0.0131,0.26328 0.008,0.27216 -0.0146,0.0236 -1.70485,0.0206 -1.7195,-0.003 -0.007,-0.0106 -0.003,-0.14645 0.008,-0.30185 0.0109,-0.15541 0.0248,-0.37164 0.0309,-0.4805 0.006,-0.10887 0.0241,-0.39835 0.04,-0.6433 0.0159,-0.24494 0.0381,-0.60123 0.0493,-0.79175 0.0112,-0.19051 0.0376,-0.63586 0.0588,-0.98968 0.0211,-0.35381 0.044,-0.75463 0.0509,-0.89071 0.007,-0.13609 0.0163,-0.26111 0.0208,-0.27785 0.005,-0.0176 -0.0542,-0.1007 -0.14014,-0.19724 l -0.14849,-0.16675 v -0.22341 z m 2.33565,5.70051 6e-5,0.27715 v 0.27715 h -5.621911 c -4.606762,0 -5.62383,-0.005 -5.631956,-0.0259 -0.0055,-0.0142 -0.0074,-0.13669 -0.0043,-0.27217 l 0.0056,-0.2463 5.626351,-0.005 z m -11.618759,0.9898 h 5.987588 5.987581 v 0.25732 0.25732 h -5.974398 c -3.285914,0 -5.98033,-0.006 -5.987588,-0.0132 -0.0073,-0.007 -0.01319,-0.12305 -0.01319,-0.25732 z m -0.475048,0.9501 h 6.473117 6.47311 l -0.006,0.26226 -0.005,0.26227 -6.467586,0.005 -6.467581,0.005 v -0.26725 z"
       style="fill:#841818;fill-opacity:1;stroke:none;stroke-width:0.74810743;stroke-linecap:butt;stroke-linejoin:miter;stroke-miterlimit:4;stroke-dasharray:none;stroke-opacity:1;paint-order:markers stroke fill" />
    <path
       d="m 110.87378,202.67278 v -8.91418 h 4.79946 v 0.96247 h -3.64965 v 2.96494 h 3.37188 v 0.94955 h -3.37188 v 4.03722 z"
       style="font-style:normal;font-variant:normal;font-weight:normal;font-stretch:normal;font-size:37.5px;line-height:0px;font-family:'Grandesign Neue Roman';-inkscape-font-specification:'Grandesign Neue Roman, ';letter-spacing:0px;word-spacing:0px;fill:#000000;fill-opacity:1;stroke:none;stroke-width:0.26458332"
       id="path6060" />
    <path
       d="m 119.9107,202.82135 h -0.0129 q -1.40172,0 -2.25439,-0.95601 -0.8139,-0.91726 -0.8139,-2.33836 0,-1.47278 0.8462,-2.42233 0.8785,-0.98186 2.3319,-0.98186 1.41464,0 2.26731,0.94956 0.8139,0.9108 0.8139,2.34482 0,1.64072 -1.02061,2.58382 -0.88496,0.82036 -2.15749,0.82036 z m 0.0129,-0.8785 h 0.0129 q 0.93664,0 1.47278,-0.80744 0.47155,-0.69764 0.47155,-1.67949 0,-0.96247 -0.43279,-1.64072 -0.52323,-0.82037 -1.4857,-0.82037 -0.95601,0 -1.49216,0.79453 -0.47801,0.70409 -0.47801,1.6924 0,0.96247 0.47155,1.66011 0.54261,0.80098 1.45986,0.80098 z"
       style="font-style:normal;font-variant:normal;font-weight:normal;font-stretch:normal;font-size:37.5px;line-height:0px;font-family:'Grandesign Neue Roman';-inkscape-font-specification:'Grandesign Neue Roman, ';letter-spacing:0px;word-spacing:0px;fill:#000000;fill-opacity:1;stroke:none;stroke-width:0.26458332"
       id="path6062" />
    <path
       d="m 127.90763,197.25967 q -0.16149,-0.0387 -0.39403,-0.0387 -0.62658,0 -1.05291,0.44571 -0.39403,0.40049 -0.5103,1.04645 -0.0452,0.24546 -0.0452,0.5426 v 3.4171 h -1.15626 v -4.40541 q 0,-0.50385 -0.006,-0.92372 -0.084,-0.34236 -1.1498,-0.34236 v -0.72347 h 2.12519 l 0.0452,1.25316 h 0.0388 q 0.21316,-0.61366 0.67179,-0.98832 0.49093,-0.41341 1.11105,-0.41341 0.18086,0 0.32297,0.0323 z"
       style="font-style:normal;font-variant:normal;font-weight:normal;font-stretch:normal;font-size:37.5px;line-height:0px;font-family:'Grandesign Neue Roman';-inkscape-font-specification:'Grandesign Neue Roman, ';letter-spacing:0px;word-spacing:0px;fill:#000000;fill-opacity:1;stroke:none;stroke-width:0.26458332"
       id="path6064" />
    <path
       d="m 135.8658,202.67278 h -2.13165 l -0.0581,-1.04645 h -0.0323 q -0.68472,1.19502 -2.11874,1.19502 -1.1498,0 -1.71824,-0.85912 -0.48446,-0.72347 -0.48446,-1.95078 v -2.57737 q 0,-0.29068 -0.36174,-0.38111 -0.21316,-0.0517 -0.79452,-0.0517 v -0.72347 h 2.31252 v 3.53338 q 0,2.04768 1.42756,2.04768 0.51031,0 0.93018,-0.29068 0.42633,-0.29714 0.61365,-0.77515 0.10336,-0.25838 0.10336,-0.60074 v -3.91449 h 1.15626 v 4.64442 q 0,0.34882 0.006,0.6718 0.0711,0.35527 1.1498,0.35527 z"
       style="font-style:normal;font-variant:normal;font-weight:normal;font-stretch:normal;font-size:37.5px;line-height:0px;font-family:'Grandesign Neue Roman';-inkscape-font-specification:'Grandesign Neue Roman, ';letter-spacing:0px;word-spacing:0px;fill:#000000;fill-opacity:1;stroke:none;stroke-width:0.26458332"
       id="path6066" />
    <path
       d="m 146.16233,202.67278 h -1.13688 v -3.61735 q 0,-1.97016 -1.38235,-1.97016 -0.64595,0 -1.06582,0.49092 -0.41342,0.48447 -0.41342,1.13689 v 3.9597 h -1.13688 v -3.83697 q 0,-0.72993 -0.29068,-1.19502 -0.34881,-0.55552 -1.03998,-0.55552 -0.49739,0 -0.90434,0.34235 -0.38112,0.32298 -0.54261,0.81391 -0.0904,0.2713 -0.0904,0.5749 v 3.85635 h -1.13688 v -4.67026 q 0,-0.33589 -0.007,-0.64595 -0.0711,-0.35528 -1.1498,-0.35528 v -0.72347 h 2.11874 l 0.0581,1.02707 h 0.0323 q 0.68471,-1.17564 2.01538,-1.17564 1.33713,0 1.80867,1.28545 h 0.0258 q 0.71701,-1.28545 2.1252,-1.28545 0.8139,0 1.37589,0.55553 0.73638,0.72992 0.73638,2.22208 z"
       style="font-style:normal;font-variant:normal;font-weight:normal;font-stretch:normal;font-size:37.5px;line-height:0px;font-family:'Grandesign Neue Roman';-inkscape-font-specification:'Grandesign Neue Roman, ';letter-spacing:0px;word-spacing:0px;fill:#000000;fill-opacity:1;stroke:none;stroke-width:0.26458332"
       id="path6068" />
    <path
       d="m 150.14141,196.27136 h 1.2467 l 1.25315,3.59798 q 0.34882,1.00768 0.51676,1.64072 h 0.0388 q 0.13565,-0.46509 0.54261,-1.64072 l 1.24669,-3.59798 h 1.2144 l -2.51277,6.40142 h -1.11104 z"
       style="font-style:normal;font-variant:normal;font-weight:normal;font-stretch:normal;font-size:37.5px;line-height:0px;font-family:'Grandesign Neue Roman';-inkscape-font-specification:'Grandesign Neue Roman, ';letter-spacing:0px;word-spacing:0px;fill:#000000;fill-opacity:1;stroke:none;stroke-width:0.26458332"
       id="path6070" />
    <path
       d="m 159.90826,202.82135 h -0.0129 q -1.40173,0 -2.25439,-0.95601 -0.8139,-0.91726 -0.8139,-2.33836 0,-1.47278 0.8462,-2.42233 0.8785,-0.98186 2.3319,-0.98186 1.41464,0 2.2673,0.94956 0.81391,0.9108 0.81391,2.34482 0,1.64072 -1.02061,2.58382 -0.88496,0.82036 -2.15749,0.82036 z m 0.0129,-0.8785 h 0.0129 q 0.93663,0 1.47277,-0.80744 0.47155,-0.69764 0.47155,-1.67949 0,-0.96247 -0.43279,-1.64072 -0.52322,-0.82037 -1.48569,-0.82037 -0.95602,0 -1.49216,0.79453 -0.47801,0.70409 -0.47801,1.6924 0,0.96247 0.47155,1.66011 0.5426,0.80098 1.45985,0.80098 z"
       style="font-style:normal;font-variant:normal;font-weight:normal;font-stretch:normal;font-size:37.5px;line-height:0px;font-family:'Grandesign Neue Roman';-inkscape-font-specification:'Grandesign Neue Roman, ';letter-spacing:0px;word-spacing:0px;fill:#000000;fill-opacity:1;stroke:none;stroke-width:0.26458332"
       id="path6072" />
    <path
       d="m 167.1688,202.82135 h -0.0129 q -1.40173,0 -2.25439,-0.95601 -0.8139,-0.91726 -0.8139,-2.33836 0,-1.47278 0.8462,-2.42233 0.8785,-0.98186 2.3319,-0.98186 1.41464,0 2.2673,0.94956 0.81391,0.9108 0.81391,2.34482 0,1.64072 -1.02061,2.58382 -0.88496,0.82036 -2.15749,0.82036 z m 0.0129,-0.8785 h 0.0129 q 0.93663,0 1.47277,-0.80744 0.47155,-0.69764 0.47155,-1.67949 0,-0.96247 -0.43279,-1.64072 -0.52322,-0.82037 -1.4857,-0.82037 -0.95601,0 -1.49215,0.79453 -0.47801,0.70409 -0.47801,1.6924 0,0.96247 0.47155,1.66011 0.5426,0.80098 1.45986,0.80098 z"
       style="font-style:normal;font-variant:normal;font-weight:normal;font-stretch:normal;font-size:37.5px;line-height:0px;font-family:'Grandesign Neue Roman';-inkscape-font-specification:'Grandesign Neue Roman, ';letter-spacing:0px;word-spacing:0px;fill:#000000;fill-opacity:1;stroke:none;stroke-width:0.26458332"
       id="path6074" />
    <path
       d="m 175.16572,197.25967 q -0.16148,-0.0387 -0.39403,-0.0387 -0.62657,0 -1.05291,0.44571 -0.39403,0.40049 -0.5103,1.04645 -0.0452,0.24546 -0.0452,0.5426 v 3.4171 H 172.007 v -4.40541 q 0,-0.50385 -0.007,-0.92372 -0.084,-0.34236 -1.1498,-0.34236 v -0.72347 h 2.1252 l 0.0452,1.25316 h 0.0388 q 0.21316,-0.61366 0.67179,-0.98832 0.49093,-0.41341 1.11104,-0.41341 0.18087,0 0.32298,0.0323 z"
       style="font-style:normal;font-variant:normal;font-weight:normal;font-stretch:normal;font-size:37.5px;line-height:0px;font-family:'Grandesign Neue Roman';-inkscape-font-specification:'Grandesign Neue Roman, ';letter-spacing:0px;word-spacing:0px;fill:#000000;fill-opacity:1;stroke:none;stroke-width:0.26458332"
       id="path6076" />
    <path
       d="m 110.87378,212.70111 v -8.77207 q 1.16273,-0.18733 2.44818,-0.18733 2.24792,0 3.50108,1.01415 1.36942,1.11104 1.36942,3.30083 0,2.39004 -1.44048,3.61089 -1.35005,1.13688 -3.7853,1.13688 -1.23378,0 -2.0929,-0.10335 z m 1.14981,-7.92587 v 7.04091 q 0.32943,0.0646 1.16272,0.0646 1.82805,0 2.8099,-0.97539 0.98831,-0.98185 0.98831,-2.80991 0,-1.6278 -0.89788,-2.51276 -0.93663,-0.92372 -2.71301,-0.92372 -0.76868,0 -1.35004,0.11627 z"
       style="font-style:normal;font-variant:normal;font-weight:normal;font-stretch:normal;font-size:37.5px;line-height:0px;font-family:'Grandesign Neue Roman';-inkscape-font-specification:'Grandesign Neue Roman, ';letter-spacing:0px;word-spacing:0px;fill:#000000;fill-opacity:1;stroke:none;stroke-width:0.26458332"
       id="path6078" />
    <path
       d="m 124.77475,209.73617 h -4.48293 q 0.0258,1.04645 0.59427,1.63427 0.56845,0.58782 1.60197,0.58782 0.98186,0 1.76992,-0.32944 l 0.20025,0.83329 q -0.88496,0.41341 -2.13166,0.41341 -1.45985,0 -2.31251,-0.89788 -0.83329,-0.8785 -0.83329,-2.34482 0,-1.44694 0.76223,-2.40941 0.83328,-1.04645 2.24146,-1.04645 1.39527,0 2.10582,1.07229 0.53614,0.8139 0.53614,1.94432 0,0.34236 -0.0517,0.5426 z m -4.47002,-0.83328 h 3.39773 q 0.0129,-0.68471 -0.31652,-1.21439 -0.41987,-0.67826 -1.29191,-0.67826 -0.80099,0 -1.29837,0.65242 -0.40049,0.52322 -0.49093,1.24023 z"
       style="font-style:normal;font-variant:normal;font-weight:normal;font-stretch:normal;font-size:37.5px;line-height:0px;font-family:'Grandesign Neue Roman';-inkscape-font-specification:'Grandesign Neue Roman, ';letter-spacing:0px;word-spacing:0px;fill:#000000;fill-opacity:1;stroke:none;stroke-width:0.26458332"
       id="path6080" />
    <path
       d="m 135.5945,212.72695 h -1.13688 v -3.61735 q 0,-1.97017 -1.38235,-1.97017 -0.64595,0 -1.06583,0.49093 -0.4134,0.48447 -0.4134,1.13688 v 3.95971 h -1.13689 v -3.83698 q 0,-0.72993 -0.29068,-1.19501 -0.34881,-0.55553 -1.03998,-0.55553 -0.49739,0 -0.90434,0.34236 -0.38112,0.32298 -0.54261,0.8139 -0.0904,0.2713 -0.0904,0.57491 v 3.85635 h -1.13688 v -4.67026 q 0,-0.3359 -0.006,-0.64596 -0.0711,-0.35527 -1.1498,-0.35527 v -0.72347 h 2.11873 l 0.0581,1.02707 h 0.0323 q 0.68472,-1.17564 2.01539,-1.17564 1.33712,0 1.80867,1.28545 h 0.0258 q 0.71701,-1.28545 2.12519,-1.28545 0.8139,0 1.37589,0.55552 0.73638,0.72993 0.73638,2.22209 z"
       style="font-style:normal;font-variant:normal;font-weight:normal;font-stretch:normal;font-size:37.5px;line-height:0px;font-family:'Grandesign Neue Roman';-inkscape-font-specification:'Grandesign Neue Roman, ';letter-spacing:0px;word-spacing:0px;fill:#000000;fill-opacity:1;stroke:none;stroke-width:0.26458332"
       id="path6082" />
    <path
       d="m 140.16786,212.87552 h -0.0129 q -1.40172,0 -2.25438,-0.95602 -0.81391,-0.91725 -0.81391,-2.33835 0,-1.47278 0.8462,-2.42234 0.8785,-0.98185 2.3319,-0.98185 1.41465,0 2.26731,0.94955 0.8139,0.9108 0.8139,2.34482 0,1.64073 -1.02061,2.58383 -0.88496,0.82036 -2.15749,0.82036 z m 0.0129,-0.8785 h 0.0129 q 0.93664,0 1.47278,-0.80745 0.47155,-0.69763 0.47155,-1.67948 0,-0.96247 -0.43279,-1.64073 -0.52323,-0.82036 -1.4857,-0.82036 -0.95601,0 -1.49216,0.79453 -0.478,0.70409 -0.478,1.6924 0,0.96247 0.47154,1.6601 0.54261,0.80099 1.45986,0.80099 z"
       style="font-style:normal;font-variant:normal;font-weight:normal;font-stretch:normal;font-size:37.5px;line-height:0px;font-family:'Grandesign Neue Roman';-inkscape-font-specification:'Grandesign Neue Roman, ';letter-spacing:0px;word-spacing:0px;fill:#000000;fill-opacity:1;stroke:none;stroke-width:0.26458332"
       id="path6084" />
    <path
       d="m 149.17894,211.6159 0.19379,0.87204 q -0.74931,0.38758 -1.83451,0.38758 -1.46633,0 -2.3319,-0.90434 -0.85912,-0.90434 -0.85912,-2.37712 0,-1.52445 0.94955,-2.46109 0.95601,-0.94309 2.48693,-0.94309 0.98185,0 1.61488,0.32944 l -0.26484,0.90433 q -0.56844,-0.30359 -1.35004,-0.30359 -1.04645,0 -1.66657,0.69117 -0.59428,0.66533 -0.59428,1.7247 0,1.03353 0.58782,1.69886 0.61366,0.69763 1.63427,0.69763 0.71701,0 1.43402,-0.31652 z"
       style="font-style:normal;font-variant:normal;font-weight:normal;font-stretch:normal;font-size:37.5px;line-height:0px;font-family:'Grandesign Neue Roman';-inkscape-font-specification:'Grandesign Neue Roman, ';letter-spacing:0px;word-spacing:0px;fill:#000000;fill-opacity:1;stroke:none;stroke-width:0.26458332"
       id="path6086" />
    <path
       d="m 154.08174,207.31384 q -0.16149,-0.0388 -0.39403,-0.0388 -0.62658,0 -1.05291,0.44571 -0.39403,0.40049 -0.5103,1.04645 -0.0452,0.24546 -0.0452,0.5426 v 3.4171 h -1.15627 v -4.40541 q 0,-0.50385 -0.007,-0.92372 -0.084,-0.34236 -1.1498,-0.34236 v -0.72347 h 2.1252 l 0.0452,1.25316 h 0.0388 q 0.21316,-0.61366 0.67179,-0.98831 0.49093,-0.41341 1.11104,-0.41341 0.18087,0 0.32298,0.0323 z"
       style="font-style:normal;font-variant:normal;font-weight:normal;font-stretch:normal;font-size:37.5px;line-height:0px;font-family:'Grandesign Neue Roman';-inkscape-font-specification:'Grandesign Neue Roman, ';letter-spacing:0px;word-spacing:0px;fill:#000000;fill-opacity:1;stroke:none;stroke-width:0.26458332"
       id="path6088" />
    <path
       d="m 160.9547,212.72695 h -2.11227 l -0.10335,-0.80745 h -0.0323 q -0.6718,0.95602 -1.95725,0.95602 -0.83974,0 -1.39526,-0.50385 -0.55552,-0.5103 -0.55552,-1.33713 0,-1.3565 1.33066,-1.95724 0.96894,-0.43925 2.51277,-0.42633 v -0.13565 q 0,-1.47278 -1.4534,-1.47278 -0.95601,0 -1.66656,0.47801 l -0.26484,-0.77515 q 0.86558,-0.56198 2.11227,-0.56198 2.42879,0 2.42879,2.62258 v 0 2.39003 q 0,0.24546 0.006,0.44571 0.0581,0.36174 1.1498,0.36174 z m -2.28668,-2.15103 v -1.11751 q -2.70655,-0.0517 -2.70655,1.44048 0,0.50385 0.29068,0.80745 0.29714,0.3036 0.80099,0.3036 0.5426,0 0.96893,-0.29068 0.42633,-0.29068 0.59428,-0.80099 0.0517,-0.15503 0.0517,-0.34235 z"
       style="font-style:normal;font-variant:normal;font-weight:normal;font-stretch:normal;font-size:37.5px;line-height:0px;font-family:'Grandesign Neue Roman';-inkscape-font-specification:'Grandesign Neue Roman, ';letter-spacing:0px;word-spacing:0px;fill:#000000;fill-opacity:1;stroke:none;stroke-width:0.26458332"
       id="path6090" />
    <path
       d="m 162.20786,205.14343 1.13688,-0.35527 v 1.53737 h 1.66657 v 0.88496 h -1.66657 v 3.45586 q 0,1.24023 0.87204,1.24023 0.39403,0 0.67179,-0.0775 l 0.0581,0.87204 q -0.41341,0.17441 -1.03353,0.17441 -1.70532,0 -1.70532,-2.17041 v -3.49462 h -0.99477 v -0.88496 h 0.99477 z"
       style="font-style:normal;font-variant:normal;font-weight:normal;font-stretch:normal;font-size:37.5px;line-height:0px;font-family:'Grandesign Neue Roman';-inkscape-font-specification:'Grandesign Neue Roman, ';letter-spacing:0px;word-spacing:0px;fill:#000000;fill-opacity:1;stroke:none;stroke-width:0.26458332"
       id="path6092" />
    <path
       d="m 167.82767,204.40058 q 0,0.32944 -0.21316,0.5426 -0.20671,0.20671 -0.53615,0.20671 h -0.0194 q -0.31652,0 -0.52322,-0.21317 -0.20025,-0.21962 -0.20025,-0.53614 0,-0.32298 0.21317,-0.53614 0.21316,-0.21317 0.53614,-0.21317 0.32944,0 0.53615,0.21317 0.2067,0.20671 0.2067,0.53614 z m -0.16795,8.32637 h -1.15626 v -5.2387 q 0,-0.29068 -0.36173,-0.38111 -0.20671,-0.0517 -0.79453,-0.0517 v -0.72347 h 2.31252 z"
       style="font-style:normal;font-variant:normal;font-weight:normal;font-stretch:normal;font-size:37.5px;line-height:0px;font-family:'Grandesign Neue Roman';-inkscape-font-specification:'Grandesign Neue Roman, ';letter-spacing:0px;word-spacing:0px;fill:#000000;fill-opacity:1;stroke:none;stroke-width:0.26458332"
       id="path6094" />
    <path
       d="m 174.90088,209.73617 h -4.48293 q 0.0258,1.04645 0.59428,1.63427 0.56844,0.58782 1.60197,0.58782 0.98185,0 1.76992,-0.32944 l 0.20025,0.83329 q -0.88496,0.41341 -2.13166,0.41341 -1.45986,0 -2.31252,-0.89788 -0.83328,-0.8785 -0.83328,-2.34482 0,-1.44694 0.76223,-2.40941 0.83328,-1.04645 2.24146,-1.04645 1.39526,0 2.10582,1.07229 0.53614,0.8139 0.53614,1.94432 0,0.34236 -0.0517,0.5426 z m -4.47001,-0.83328 h 3.39773 q 0.0129,-0.68471 -0.31652,-1.21439 -0.41987,-0.67826 -1.29191,-0.67826 -0.80099,0 -1.29837,0.65242 -0.40049,0.52322 -0.49093,1.24023 z"
       style="font-style:normal;font-variant:normal;font-weight:normal;font-stretch:normal;font-size:37.5px;line-height:0px;font-family:'Grandesign Neue Roman';-inkscape-font-specification:'Grandesign Neue Roman, ';letter-spacing:0px;word-spacing:0px;fill:#000000;fill-opacity:1;stroke:none;stroke-width:0.26458332"
       id="path6096" />
  </g>
</svg>
