<?xml version="1.0" encoding="UTF-8" standalone="no"?>
<!-- Created with Inkscape (http://www.inkscape.org/) -->

<svg
   xmlns:dc="http://purl.org/dc/elements/1.1/"
   xmlns:cc="http://creativecommons.org/ns#"
   xmlns:rdf="http://www.w3.org/1999/02/22-rdf-syntax-ns#"
   xmlns:svg="http://www.w3.org/2000/svg"
   xmlns="http://www.w3.org/2000/svg"
   xmlns:sodipodi="http://sodipodi.sourceforge.net/DTD/sodipodi-0.dtd"
   xmlns:inkscape="http://www.inkscape.org/namespaces/inkscape"
   version="1.1"
   id="svg2"
   xml:space="preserve"
   width="1072"
   height="469.33334"
   viewBox="0 0 1072 469.33334"
   sodipodi:docname="groenlinks-compact.svg"
   inkscape:version="0.92.1 r15371"><metadata
     id="metadata8"><rdf:RDF><cc:Work
         rdf:about=""><dc:format>image/svg+xml</dc:format><dc:type
           rdf:resource="http://purl.org/dc/dcmitype/StillImage" /><dc:title></dc:title></cc:Work></rdf:RDF></metadata><defs
     id="defs6"><clipPath
       clipPathUnits="userSpaceOnUse"
       id="clipPath18"><path
         d="M 0,352 H 804 V 0 H 0 Z"
         id="path16"
         inkscape:connector-curvature="0" /></clipPath></defs><sodipodi:namedview
     pagecolor="#ffffff"
     bordercolor="#666666"
     borderopacity="1"
     objecttolerance="10"
     gridtolerance="10"
     guidetolerance="10"
     inkscape:pageopacity="0"
     inkscape:pageshadow="2"
     inkscape:window-width="1920"
     inkscape:window-height="1016"
     id="namedview4"
     showgrid="false"
     inkscape:zoom="0.40578358"
     inkscape:cx="540.92874"
     inkscape:cy="239.59541"
     inkscape:window-x="0"
     inkscape:window-y="27"
     inkscape:window-maximized="1"
     inkscape:current-layer="g10" /><g
     id="g10"
     inkscape:groupmode="layer"
     inkscape:label="GROENLINKS-LOGO-COMPACT-RGB"
     transform="matrix(1.3333333,0,0,-1.3333333,0,469.33333)"><g
       id="g12"><g
         id="g14"
         clip-path="url(#clipPath18)"><g
           id="g20"
           transform="translate(123.4692,204.1831)"><path
             d="m 0,0 c -10.878,-13.978 -27.747,-19.998 -45.054,-19.998 -46.863,0 -75.729,36.437 -75.729,81.484 0,60.41 42.392,84.612 78.14,84.612 40.426,0 65.963,-21.978 73.081,-59.283 h -46.884 c -1.779,11.545 -11.545,19.747 -23.061,19.747 -33.531,0 -32.448,-35.303 -32.448,-46.166 0,-14.882 6.006,-40.857 35.777,-40.857 11.337,0 22.868,5.776 25.3,17.529 H -32.44 V 71.051 H 32.433 V -16.23 H 1.55 Z"
             style="fill:#dd0031;fill-opacity:1;fill-rule:nonzero;stroke:none"
             id="path22"
             inkscape:connector-curvature="0" /></g><g
           id="g24"
           transform="translate(123.4692,204.1831)"><path
             d="m 0,0 c -10.878,-13.978 -27.747,-19.998 -45.054,-19.998 -46.863,0 -75.729,36.437 -75.729,81.484 0,60.41 42.392,84.612 78.14,84.612 40.426,0 65.963,-21.978 73.081,-59.283 h -46.884 c -1.779,11.545 -11.545,19.747 -23.061,19.747 -33.531,0 -32.448,-35.303 -32.448,-46.166 0,-14.882 6.006,-40.857 35.777,-40.857 11.337,0 22.868,5.776 25.3,17.529 H -32.44 V 71.051 H 32.433 V -16.23 H 1.55 Z"
             style="fill:#dd0031;fill-opacity:1;fill-rule:nonzero;stroke:none"
             id="path26"
             inkscape:connector-curvature="0" /></g><g
           id="g28"
           transform="translate(174.7412,187.9526)"><path
             d="M 0,0 H 48.843 V 55.315 H 74.825 C 94.148,55.315 95.49,39.529 96.803,24.439 97.456,16.23 98.339,8 100.807,0 h 48.85 c -4.442,7.354 -4.657,26.19 -5.353,33.997 -1.772,19.761 -9.967,34.42 -23.313,39.522 16.224,5.991 23.794,23.298 23.794,39.773 0,29.958 -24.016,45.27 -51.756,45.27 H 0 Z m 48.843,120.812 h 22.832 c 18.663,0 24.21,-5.755 24.21,-15.779 0,-14.171 -12.406,-15.764 -21.49,-15.764 H 48.843 Z"
             style="fill:#dd0031;fill-opacity:1;fill-rule:nonzero;stroke:none"
             id="path30"
             inkscape:connector-curvature="0" /></g><g
           id="g32"
           transform="translate(174.7412,187.9526)"><path
             d="M 0,0 H 48.843 V 55.315 H 74.825 C 94.148,55.315 95.49,39.529 96.803,24.439 97.456,16.23 98.339,8 100.807,0 h 48.85 c -4.442,7.354 -4.657,26.19 -5.353,33.997 -1.772,19.761 -9.967,34.42 -23.313,39.522 16.224,5.991 23.794,23.298 23.794,39.773 0,29.958 -24.016,45.27 -51.756,45.27 H 0 Z m 48.843,120.812 h 22.832 c 18.663,0 24.21,-5.755 24.21,-15.779 0,-14.171 -12.406,-15.764 -21.49,-15.764 H 48.843 Z"
             style="fill:#dd0031;fill-opacity:1;fill-rule:nonzero;stroke:none"
             id="path34"
             inkscape:connector-curvature="0" /></g><g
           id="g36"
           transform="translate(329.2939,267.2378)"><path
             d="m 0,0 c 0,-48.419 32.174,-83.048 80.379,-83.048 48.146,0 80.371,34.629 80.371,83.048 0,48.419 -32.225,83.041 -80.371,83.041 C 32.174,83.041 0,48.419 0,0 m 48.836,0 c 0,35.303 19.086,43.504 31.543,43.504 12.413,0 31.536,-8.201 31.536,-43.504 0,-35.281 -19.123,-43.512 -31.536,-43.512 -12.457,0 -31.543,8.231 -31.543,43.512"
             style="fill:#dd0031;fill-opacity:1;fill-rule:nonzero;stroke:none"
             id="path38"
             inkscape:connector-curvature="0" /></g><g
           id="g40"
           transform="translate(329.2939,267.2378)"><path
             d="m 0,0 c 0,-48.419 32.174,-83.048 80.379,-83.048 48.146,0 80.371,34.629 80.371,83.048 0,48.419 -32.225,83.041 -80.371,83.041 C 32.174,83.041 0,48.419 0,0 m 48.836,0 c 0,35.303 19.086,43.504 31.543,43.504 12.413,0 31.536,-8.201 31.536,-43.504 0,-35.281 -19.123,-43.512 -31.536,-43.512 -12.457,0 -31.543,8.231 -31.543,43.512"
             style="fill:#dd0031;fill-opacity:1;fill-rule:nonzero;stroke:none"
             id="path42"
             inkscape:connector-curvature="0" /></g><g
           id="g44"
           transform="translate(506.2236,346.5205)"><path
             d="m 0,0 v -158.576 h 133.649 v 40.663 H 48.857 v 19.783 h 74.797 v 37.706 H 48.857 v 19.783 h 82.31 V 0 Z"
             style="fill:#dd0031;fill-opacity:1;fill-rule:nonzero;stroke:none"
             id="path46"
             inkscape:connector-curvature="0" /></g><g
           id="g48"
           transform="translate(506.2236,346.5205)"><path
             d="m 0,0 v -158.576 h 133.649 v 40.663 H 48.857 v 19.783 h 74.797 v 37.706 H 48.857 v 19.783 h 82.31 V 0 Z"
             style="fill:#dd0031;fill-opacity:1;fill-rule:nonzero;stroke:none"
             id="path50"
             inkscape:connector-curvature="0" /></g><g
           id="g52"
           transform="translate(753.9541,346.5205)"><path
             d="M 0,0 V -84.827 H -0.481 L -46.662,0 h -49.977 v -158.576 h 46.217 v 86.65 h 0.459 l 48.635,-86.65 H 46.181 L 46.181,0 Z"
             style="fill:#dd0031;fill-opacity:1;fill-rule:nonzero;stroke:none"
             id="path54"
             inkscape:connector-curvature="0" /></g><g
           id="g56"
           transform="translate(753.9541,346.5205)"><path
             d="M 0,0 V -84.827 H -0.481 L -46.662,0 h -49.977 v -158.576 h 46.217 v 86.65 h 0.459 l 48.635,-86.65 H 46.181 L 46.181,0 Z"
             style="fill:#dd0031;fill-opacity:1;fill-rule:nonzero;stroke:none"
             id="path58"
             inkscape:connector-curvature="0" /></g><g
           id="g60"
           transform="translate(142.4741,163.3584)"><path
             d="m 0,0 v -158.576 h 119.047 v 40.663 H 48.857 V 0 Z"
             style="fill:#39a835;fill-opacity:1;fill-rule:nonzero;stroke:none"
             id="path62"
             inkscape:connector-curvature="0" /></g><path
           d="m 272.519,4.787 h 48.872 v 158.576 h -48.872 z"
           style="fill:#39a835;fill-opacity:1;fill-rule:nonzero;stroke:none"
           id="path64"
           inkscape:connector-curvature="0" /><g
           id="g66"
           transform="translate(439.4902,163.3584)"><path
             d="M 0,0 V -84.827 H -0.467 L -46.654,0 h -49.927 v -158.576 h 46.152 v 86.65 h 0.417 l 48.656,-86.65 H 46.181 V 0 Z"
             style="fill:#39a835;fill-opacity:1;fill-rule:nonzero;stroke:none"
             id="path68"
             inkscape:connector-curvature="0" /></g><g
           id="g70"
           transform="translate(600.2197,163.3584)"><path
             d="M 0,0 -43.505,-54.626 H -44 V 0 H -92.864 V -158.576 H -44 v 46.884 l 13.54,14.868 39.092,-61.752 H 69.45 L 2.633,-61.945 60.158,0 Z"
             style="fill:#39a835;fill-opacity:1;fill-rule:nonzero;stroke:none"
             id="path72"
             inkscape:connector-curvature="0" /></g><g
           id="g74"
           transform="translate(708.5234,58.0908)"><path
             d="m 0,0 c 0,-3.982 0.703,-7.542 1.809,-10.434 3.551,-9.549 14.221,-11.538 23.305,-11.538 7.993,0 20.235,2.662 20.235,14.43 0,8.194 -6.932,10.404 -34.248,18.219 -25.072,7.096 -53.702,13.977 -53.702,45.972 0,36.631 31.314,52.373 63.919,52.373 34.463,0 64.851,-13.058 66.186,-51.691 H 41.345 c 0.875,5.97 -1.78,9.945 -5.791,12.629 -3.975,2.892 -9.579,4.004 -14.444,4.004 -6.637,0 -17.537,-1.83 -17.537,-10.663 C 4.478,51.957 27.123,49.51 49.539,43.325 71.991,37.082 94.163,26.671 94.163,-2.404 c 0,-41.323 -37.951,-54.662 -73.261,-54.662 -17.989,0 -69.271,6.479 -69.709,57.066 z"
             style="fill:#39a835;fill-opacity:1;fill-rule:nonzero;stroke:none"
             id="path76"
             inkscape:connector-curvature="0" /></g><g
           id="g78"
           transform="translate(708.5234,58.0908)"><path
             d="m 0,0 c 0,-3.982 0.703,-7.542 1.809,-10.434 3.551,-9.549 14.221,-11.538 23.305,-11.538 7.993,0 20.235,2.662 20.235,14.43 0,8.194 -6.932,10.404 -34.248,18.219 -25.072,7.096 -53.702,13.977 -53.702,45.972 0,36.631 31.314,52.373 63.919,52.373 34.463,0 64.851,-13.058 66.186,-51.691 H 41.345 c 0.875,5.97 -1.78,9.945 -5.791,12.629 -3.975,2.892 -9.579,4.004 -14.444,4.004 -6.637,0 -17.537,-1.83 -17.537,-10.663 C 4.478,51.957 27.123,49.51 49.539,43.325 71.991,37.082 94.163,26.671 94.163,-2.404 c 0,-41.323 -37.951,-54.662 -73.261,-54.662 -17.989,0 -69.271,6.479 -69.709,57.066 z"
             style="fill:#39a835;fill-opacity:1;fill-rule:nonzero;stroke:none"
             id="path80"
             inkscape:connector-curvature="0" /></g></g></g></g></svg>