<svg id="Layer_1" data-name="Layer 1" xmlns="http://www.w3.org/2000/svg" viewBox="0 0 367.88 109.1"><title>logo-pvda</title><path d="M129.67,12.08h35.87q10.64,0,17.18,6t6.54,16.94a24.64,24.64,0,0,1-5.84,16.34q-5.84,7-17.86,7h-25V92.24H129.67Zm42.12,11q-3.58-1.69-9.81-1.69H140.53V49.19H162q7.26,0,11.78-3.11t4.52-11Q178.29,26.27,171.79,23.11Z" transform="translate(-0.75)" style="fill:#df111a"/><path d="M202.79,33.8l15.61,47.58L234.65,33.8H245.4l-22,58.44H212.93L191.38,33.8Z" transform="translate(-0.75)" style="fill:#df111a"/><path d="M279.24,35.6a26.34,26.34,0,0,1,5.92,5.73V11.81h9.44V92.24h-8.84V84.11a21.21,21.21,0,0,1-8.1,7.8A23.11,23.11,0,0,1,267,94.32q-9.73,0-16.85-8.21T243,64.25q0-12.77,6.5-22.13T268,32.77A20.65,20.65,0,0,1,279.24,35.6ZM257.31,79.42q4,6.33,12.71,6.33a13.36,13.36,0,0,0,11.16-5.87q4.37-5.87,4.37-16.83T281,46.65a14,14,0,0,0-11.13-5.32,14.66,14.66,0,0,0-12,5.67q-4.59,5.68-4.59,16.7Q253.35,73.09,257.31,79.42Z" transform="translate(-0.75)" style="fill:#df111a"/><path d="M327.28,12.08h12.26l29.09,80.16h-11.9l-8.37-24H316.92l-8.69,24H297.09Zm18,47.31L332.94,24,320.12,59.4Z" transform="translate(-0.75)" style="fill:#df111a"/><path d="M110.08,54.38l-8.23-16.07L90.62,73.64,61.43,94,18,81.68.75,55,11.1,86.35,55.68,109.1,94.22,92.79l15.86-38.41Z" transform="translate(-0.75)" style="fill:#df111a"/><path d="M101.1,37l-14-26.91L55.44,0,17,16l40.75-6.5L88,33.08,87.07,72Z" transform="translate(-0.75)" style="fill:#df111a"/><path d="M83,72l3.18-32.9L66.81,18.88,44,25.65,73,36.07l4.31,28.41L56.57,76.63,83,72Z" transform="translate(-0.75)" style="fill:#df111a"/><path d="M82.8,73.59,61.15,92.14,16.52,76.25l-9-39.06L36.36,15.56l25,.24L21.95,32.33,20.26,60.18,46.84,82.24Z" transform="translate(-0.75)" style="fill:#df111a"/><path d="M64.07,38.68l-6.24-6.38-4.91,2.17,2.15,4.2h9Zm-7.55,1.41,14,13.51-6.45-3.13L51,62.42l-.09,15.09,25-17L70.41,40.37l-13.89-.28Z" transform="translate(-0.75)" style="fill:#df111a"/><path d="M52.26,36.07,50.2,34.39,45.43,37.8,54.88,53.6,62,49.53l-9.54-5.24ZM54,54.1l-5.47,3.14L37.06,43.17l5.28-3.92L54,54.1Zm-6.17,3.51-5.28,2.94L32.24,50.09l2.9-5.23Z" transform="translate(-0.75)" style="fill:#df111a"/><path d="M44.41,68.78,29.62,47.84,48.47,29.45,26.81,33.83,21.76,53.26,44.45,79.2l0-10.42Z" transform="translate(-0.75)" style="fill:#df111a"/></svg>