<?xml version="1.0" encoding="UTF-8" standalone="no"?>
<svg width="375px" xmlns="http://www.w3.org/2000/svg" viewBox="0 0 375 144" version="1.1" height="144px">
 <path d="m173.85 43.029c3.28 0 5.28-1.901 5.28-4.801 0-2.994-2-4.848-5.28-4.848h-5.18v9.649h5.18zm-5.23 5.656v12.69h-6.55v-33.698h12.59c6.66 0 11.08 4.419 11.08 10.504 0 6.132-4.42 10.504-11.08 10.504h-6.04zm33.26 3.233v-1.046l-5.28 0.808c-1.62 0.238-2.9 1.14-2.9 2.946 0 1.378 1 2.71 3.04 2.71 2.66 0 5.14-1.284 5.14-5.418zm-7.51-3.994l5.75-0.854c1.33-0.19 1.76-0.856 1.76-1.664 0-1.664-1.29-3.042-3.95-3.042-2.76 0-4.28 1.758-4.47 3.802l-5.61-1.188c0.39-3.66 3.76-7.7 10.03-7.7 7.42 0 10.18 4.184 10.18 8.888v11.504c0 1.236 0.14 2.898 0.28 3.706h-5.8c-0.14-0.618-0.24-1.902-0.24-2.804-1.18 1.852-3.42 3.47-6.89 3.47-4.99 0-8.03-3.374-8.03-7.034 0-4.182 3.09-6.512 6.99-7.084zm33.08-3.659c-0.72-0.142-1.33-0.19-1.9-0.19-3.24 0-6.04 1.568-6.04 6.607v10.694h-6.32v-23.384h6.13v3.468c1.43-3.089 4.66-3.66 6.65-3.66 0.53 0 1 0.048 1.48 0.096v6.369zm12.19-6.274h4.71v5.608h-4.71v9.791c0 2.045 0.95 2.71 2.76 2.71 0.76 0 1.61-0.096 1.95-0.19v5.229c-0.57 0.237-1.71 0.569-3.57 0.569-4.56 0-7.41-2.709-7.41-7.224v-10.885h-4.23v-5.608h1.19c2.47 0 3.61-1.615 3.61-3.708v-3.28h5.7v6.988zm8.67 0h6.32v23.385h-6.32v-23.385zm3.14-11.597c2.19 0 3.9 1.759 3.9 3.945 0 2.09-1.71 3.849-3.9 3.849-2.14 0-3.9-1.759-3.9-3.849 0-2.186 1.76-3.945 3.9-3.945zm11.75-0.048c2.19 0 3.9 1.759 3.9 3.945 0 2.139-1.71 3.85-3.9 3.85-2.14 0-3.89-1.711-3.89-3.85 0-2.186 1.75-3.945 3.89-3.945zm-3.13 11.646h6.32v25.428c0 4.516-2.81 7.7-7.32 7.7-1.86 0-3.23-0.381-3.57-0.523v-5.276c0.43 0.095 1.05 0.237 1.95 0.237 1.9 0 2.62-1.044 2.62-2.757v-24.809zm35.43 23.384h-6.32l-9.55-23.385h6.94l5.8 15.684 5.56-15.684h6.65l-9.08 23.385zm27.49-11.692c0-4.42-2.85-6.654-5.94-6.654s-5.94 2.234-5.94 6.654c0 4.373 2.85 6.654 5.94 6.654s5.94-2.234 5.94-6.654zm6.32 0c0 7.178-5.27 12.405-12.26 12.405s-12.26-5.227-12.26-12.405c0-7.225 5.27-12.406 12.26-12.406s12.26 5.181 12.26 12.406zm20.65 0c0-4.42-2.85-6.654-5.94-6.654s-5.94 2.234-5.94 6.654c0 4.373 2.85 6.654 5.94 6.654s5.94-2.234 5.94-6.654zm6.32 0c0 7.178-5.28 12.405-12.26 12.405-6.99 0-12.27-5.227-12.27-12.405 0-7.225 5.28-12.406 12.27-12.406 6.98 0 12.26 5.181 12.26 12.406zm18.21-5.419c-0.71-0.142-1.33-0.19-1.9-0.19-3.23 0-6.04 1.568-6.04 6.607v10.694h-6.32v-23.384h6.13v3.468c1.43-3.089 4.66-3.66 6.66-3.66 0.52 0 0.99 0.048 1.47 0.096v6.369zm-202.49 67.465c3.23 0 5.75-2.47 5.75-6.7 0-4.18-2.52-6.511-5.75-6.511s-5.8 2.381-5.8 6.561 2.47 6.65 5.8 6.65zm11.88 0.86c0 1.57 0.1 3.28 0.19 4.23h-6.03c-0.1-0.48-0.24-1.62-0.24-2.71-1.05 1.85-3.42 3.28-6.56 3.28-6.66 0-11.41-5.23-11.41-12.31 0-6.847 4.61-12.217 11.22-12.217 4.04 0 5.94 1.663 6.61 2.899v-13.357h6.22v30.185zm20.55-10.13c-0.1-2.32-1.62-4.606-5.23-4.606-3.28 0-5.08 2.476-5.23 4.606h10.46zm5.89 7.66c-1.18 4.04-4.89 7.41-10.64 7.41-6.42 0-12.08-4.61-12.08-12.5 0-7.462 5.52-12.309 11.51-12.309 7.22 0 11.55 4.61 11.55 12.119 0 0.9-0.1 1.85-0.1 1.95h-16.73c0.14 3.09 2.76 5.32 5.89 5.32 2.95 0 4.57-1.47 5.33-3.56l5.27 1.57zm25.84 0.61c5.51 0 10.12-3.42 10.12-10.738 0-7.319-4.56-10.789-10.07-10.789h-5.28v21.527h5.23zm-11.79 6.09v-33.7h12.08c9.6 0 16.63 6.225 16.63 16.872 0 10.648-7.08 16.828-16.68 16.828h-12.03zm33.04-23.387h6.32v23.387h-6.32v-23.387zm3.13-11.598c2.19 0 3.9 1.759 3.9 3.945 0 2.093-1.71 3.85-3.9 3.85-2.14 0-3.89-1.757-3.89-3.85 0-2.186 1.75-3.945 3.89-3.945zm23.82 20.625c-0.1-2.32-1.62-4.606-5.23-4.606-3.28 0-5.09 2.476-5.23 4.606h10.46zm5.89 7.66c-1.19 4.04-4.9 7.41-10.65 7.41-6.42 0-12.07-4.61-12.07-12.5 0-7.462 5.51-12.309 11.5-12.309 7.23 0 11.55 4.61 11.55 12.119 0 0.9-0.09 1.85-0.09 1.95h-16.73c0.14 3.09 2.75 5.32 5.89 5.32 2.95 0 4.56-1.47 5.32-3.56l5.28 1.57zm18.62-10.413c-0.71-0.142-1.33-0.19-1.9-0.19-3.23 0-6.04 1.573-6.04 6.603v10.7h-6.32v-23.386h6.13v3.468c1.43-3.089 4.66-3.66 6.66-3.66 0.52 0 1 0.048 1.47 0.096v6.369zm18.5 2.753c-0.09-2.32-1.61-4.606-5.22-4.606-3.28 0-5.09 2.476-5.23 4.606h10.45zm5.9 7.66c-1.19 4.04-4.9 7.41-10.65 7.41-6.42 0-12.07-4.61-12.07-12.5 0-7.462 5.51-12.309 11.5-12.309 7.23 0 11.55 4.61 11.55 12.119 0 0.9-0.09 1.85-0.09 1.95h-16.74c0.15 3.09 2.76 5.32 5.9 5.32 2.95 0 4.56-1.47 5.32-3.56l5.28 1.57zm10.68 6.7h-6.32v-23.387h6.13v2.899c1.43-2.424 4.23-3.517 6.75-3.517 5.8 0 8.46 4.135 8.46 9.265v14.74h-6.32v-13.64c0-2.62-1.28-4.66-4.33-4.66-2.75 0-4.37 2.14-4.37 4.85v13.45z"/>
 <path d="m58.65 1.074c1.841-0.284 3.719-0.52 5.325-0.383 0.825 0.07 1.659-0.198 2.43-0.132 2.071-0.17 4.141-0.34 6.211-0.51 1.476 0.137 3.077-0.01 4.555 0.205 1.863 0.272 3.8 0.465 5.592 0.751 0.743 0.119 1.408 0.038 2.155 0.173 0.318 0.058 0.708 0.185 1.043 0.224 0.897 0.109 1.782-0.089 2.58 0.167 1.345 0.432 2.683 0.97 3.942 1.516 0.796 0.345 1.597 0.495 2.409 0.83 0.853 0.353 1.757 0.728 2.601 1.07l0.485 0.037c0.449 0.104 0.944 0.375 1.356 0.553 0.219 0.094 0.444 0.074 0.663 0.172 1.093 0.478 2.173 1.152 3.263 1.614 0.4 0.166 0.89 0.169 1.23 0.41 2.15 1.513 4.53 2.82 6.46 4.62 0.34 0.314 0.74 0.523 1.08 0.858 0.81 0.801 1.89 1.405 2.71 2.225 0.52 0.371 1.03 0.742 1.55 1.113 0.36 0.362 0.82 0.796 1.26 1.045 0.51 0.282 1.14 0.65 1.54 1.059 0.5 0.51 0.91 1.035 1.39 1.559 0.45 0.489 1.04 0.929 1.48 1.441 0.36 0.421 0.62 0.883 0.99 1.298 0.42 0.472 1.03 0.824 1.46 1.284 0.38 0.419 0.65 0.866 1.03 1.29 0.25 0.276 0.61 0.505 0.86 0.784 0.39 0.439 0.64 0.927 1 1.403 0.58 0.775 1.3 1.542 1.92 2.283 0.07 0.149 0.15 0.299 0.22 0.447 0.8 1.018 1.74 2.031 2.57 3.045 0.67 0.833 1.08 1.851 1.71 2.739 0.15 0.209 0.43 0.424 0.58 0.663 0.61 1.018 0.87 2.31 1.39 3.424 1.16 2.485 1.96 5.257 3.14 7.86 0.25 0.565 0.31 1.102 0.56 1.678 0.5 1.167 0.95 2.472 1.42 3.634 0.23 0.996 0.46 1.993 0.69 2.989 0.41 1.074 0.91 3.581 0.83 4.729 0.04 0.296 0.09 0.591 0.13 0.886 0.14 0.985 0.42 1.98 0.42 2.604 0 0.254 0.15 0.703 0.2 1.036 0.06 0.576 0.13 1.154 0.19 1.729 0.28 0.743 0.42 1.749 0.36 2.507 0.03 0.208 0.06 0.417 0.09 0.625-0.14 1.558-0.1 3.444-0.31 4.996-0.1 0.805 0.14 1.489 0 2.185-0.53 2.516-0.95 5.244-1.51 7.775-0.2 0.887-0.26 1.668-0.49 2.519-0.1 0.33-0.31 0.735-0.39 1.066-0.09 0.418-0.04 0.802-0.15 1.193-0.13 0.49-0.4 1.089-0.52 1.566-0.11 0.472-0.01 0.896-0.19 1.305-1.24 2.932-2.72 5.83-3.97 8.767-0.23 0.55-0.28 1.08-0.52 1.62-0.66 1.51-1.46 3.01-2.13 4.5-0.28 0.64-0.37 1.35-0.68 1.96-0.31 0.63-1.21 1.27-1.59 1.93-0.59 1.05-1.32 1.95-2.09 2.86-0.39 0.53-0.77 1.07-1.16 1.6-0.47 0.47-0.88 0.95-1.34 1.42-0.13 0.19-0.27 0.39-0.4 0.59-0.16 0.16-0.42 0.22-0.58 0.4-0.07 0.08-0.04 0.25-0.11 0.33-0.1 0.11-0.24 0.11-0.35 0.21-0.39 0.37-0.64 0.95-1.03 1.32-0.14 0.13-0.31 0.15-0.44 0.27-0.13 0.13-0.17 0.42-0.3 0.53-0.09 0.01-0.18 0.02-0.26 0.03-0.21 0.15-0.31 0.57-0.48 0.76-0.07 0.08-0.21 0.26-0.28 0.31-0.08 0.01-0.17 0.02-0.26 0.04-0.09 0.1-0.14 0.48-0.28 0.62-0.36 0.36-0.73 0.65-1.08 1.01-0.22 0.33-0.44 0.66-0.66 1-0.17 0.07-0.33 0.15-0.5 0.23-0.44 0.3-0.86 0.67-1.3 0.98-0.24 0.17-0.5 0.24-0.74 0.42-0.32 0.26-0.62 0.63-0.94 0.88-0.54 0.44-1.16 0.68-1.71 1.1-0.26 0.2-0.45 0.52-0.69 0.74-0.15 0.13-0.46 0.17-0.6 0.29-0.03 0.04-0.02 0.19-0.07 0.23-0.14 0.1-0.29 0.05-0.41 0.16l-0.07 0.22c-0.24 0.24-0.62 0.29-0.89 0.5-0.29 0.24-0.54 0.62-0.83 0.87-0.26 0.16-0.52 0.32-0.79 0.48-0.06 0.08-0.11 0.16-0.18 0.24-0.15 0.09-0.18-0.09-0.31 0.04-0.04 0.05-0.03 0.18-0.07 0.23-0.28 0.27-0.62 0.53-0.91 0.76-0.49 0.41-1.12 0.61-1.61 1.03-0.08 0.14-0.17 0.28-0.26 0.41-0.67 0.62-1.51 0.97-2.23 1.54-0.43 0.35-0.77 0.79-1.28 1.09-0.67 0.39-1.3 0.39-2.08 0.72-0.92 0.4-1.858 0.88-2.807 1.25-0.008 0.01-0.658 0.14-0.783 0.11-0.096-0.01-0.094-0.15-0.231-0.12l-0.202 0.08c0.005 0.03 0.01 0.07 0.015 0.1-0.175 0.03-0.348 0.05-0.521 0.08-0.271 0.12-0.787 0.24-1.119 0.37-0.232 0.09-0.627 0.07-0.79 0.06-0.188-0.01-1.487 0.31-1.754 0.41-1.617 0.59-3.897 0.82-5.793 1.19-0.741 0.16-1.482 0.32-2.223 0.48-0.043-0.05-0.084-0.1-0.127-0.14-0.33 0.04-0.662 0.09-0.992 0.14-0.133 0.36-0.356 0.39-0.895 0.44-0.207 0.18-0.87 0.21-1.179 0.33-1.315 0.5-2.689-0.14-4.153 0-0.142-0.16-0.439-0.42-0.655-0.49 0.002 0.02 0.005 0.04 0.007 0.05-0.061 0.11-0.114 0.25-0.163 0.35-0.156-0.03-0.423 0.06-0.634 0.03-0.741-0.08-1.772-0.25-2.521-0.12-0.386 0.07-0.88-0.2-1.259-0.25-0.52-0.05-0.957 0.16-1.424 0.1-0.652-0.08-1.302-0.17-1.954-0.26-0.315 0.03-0.632 0.06-0.947 0.09l-0.237-0.18c-0.319 0.01-0.637 0.02-0.956 0.03-0.112-0.03-0.282-0.21-0.402-0.21-0.203-0.01-0.06 0.19-0.291 0.2-0.945 0.04-2.135-0.11-3.013-0.21-0.26 0.04-0.521 0.07-0.782 0.11-0.5-0.04-1.155-0.03-1.61-0.09-0.652-0.1-1.294 0.15-1.865 0-0.364-0.1-0.851-0.2-1.222-0.36-0.213-0.09-0.515-0.34-0.746-0.38-0.101 0.04-0.203 0.07-0.305 0.1-0.175-0.02-0.474-0.22-0.626-0.28h-0.425c-0.345-0.07-0.7-0.36-1.022-0.44-0.176 0.01-0.353 0.02-0.529 0.02-0.246-0.05-0.54-0.24-0.789-0.31-0.576-0.16-1.129-0.15-1.7-0.34-0.206-0.07-0.473-0.28-0.686-0.33-0.31-0.08-0.594 0.02-0.865-0.09-0.227-0.1-0.429-0.34-0.648-0.44h-0.373c-0.173-0.06-0.416-0.26-0.581-0.35-0.488-0.24-0.939-0.4-1.424-0.65-0.323-0.16-0.663-0.52-0.998-0.65-0.162-0.02-0.323-0.03-0.485-0.04-0.365-0.13-0.67-0.48-0.998-0.66-0.989-0.53-2.117-0.86-3.124-1.36-0.221-0.12-0.384-0.4-0.604-0.5-0.625-0.32-1.305-0.43-1.915-0.74-0.984-0.52-1.974-1.13-2.995-1.6-0.213-0.1-0.482-0.02-0.71-0.12-0.655-0.26-1.285-0.7-1.945-0.94-0.272-0.11-0.568-0.08-0.827-0.21-0.348-0.17-0.651-0.53-0.962-0.77-0.78-0.59-1.584-1.16-2.376-1.73-0.095-0.07-0.229-0.06-0.334-0.12-0.527-0.28-0.99-0.71-1.528-1l-0.723-0.59c-1.086-0.6-2.039-1.44-3.026-2.18-0.315-0.24-0.731-0.36-1.043-0.6-0.109-0.14-0.219-0.29-0.328-0.43-0.147-0.07-0.286 0.01-0.388-0.11-0.076-0.16-0.154-0.33-0.231-0.5-0.081-0.1-0.833-0.52-0.543-0.83-0.134-0.11-0.381-0.05-0.506-0.19-0.217-0.23-0.293-0.53-0.484-0.78-0.516-0.69-1.216-1.3-1.765-1.94-0.101-0.11-0.06-0.27-0.165-0.4-0.065-0.08-0.279-0.07-0.342-0.16-0.015-0.11-0.03-0.21-0.044-0.32-0.118-0.07-0.235-0.14-0.352-0.21l-0.297-0.6c-0.106-0.1-0.276-0.18-0.365-0.32-0.033-0.1-0.064-0.21-0.097-0.31-0.313-0.37-0.835-0.69-1.072-1.18 0.008-0.07 0.014-0.14 0.023-0.21-0.113-0.2-0.781-0.72-0.992-0.98-0.351-0.43-0.54-0.87-0.878-1.31-0.097-0.13-0.32-0.24-0.425-0.37-0.956-1.13-1.997-2.32-2.756-3.65-0.434-0.77-0.63-1.59-1.0352-2.41-0.44-0.9-0.867-1.95-1.31-2.85-0.104-0.36-0.208-0.72-0.312-1.08-0.105-0.21-0.33-0.46-0.417-0.68 0.003-0.11 0.007-0.22 0.008-0.32-0.11-0.32-0.366-0.7-0.513-1-0.137-0.27-0.125-0.49-0.267-0.76-0.794-1.466-1.305-3.218-2.025-4.873-0.142-0.495-0.282-0.99-0.424-1.485-1.105-2.731-1.808-5.607-2.318-9.202-0.182-1.147-0.361-2.292-0.541-3.438-0.193-0.515-0.34-1.484-0.335-1.976 0.003-0.193-0.338-1.659-0.431-1.909-0.259-0.703-0.115-1.801-0.429-2.654-0.099-0.268-0.261-0.88-0.231-1.246 0.132-1.583-0.003-3.059 0.205-4.556-0.007-0.3-0.013-0.6-0.022-0.902 0.378-2.791 0.213-5.944 0.523-8.701 0.141-1.249-0.14-2.585 0.055-3.735 0.122-0.721-0.139-1.296-0.073-2.013-0.029-0.208-0.059-0.418-0.089-0.626 0.159-1.183 0.625-2.432 0.936-3.542 0.147-0.528 0.26-1.075 0.359-1.594 0.012-0.162 0.025-0.324 0.037-0.485 0.416-0.995 1.113-1.947 1.613-2.891 0.528-1 0.969-1.985 1.494-2.982 0.381-0.724 0.91-1.429 1.292-2.155 0.625-1.191 1.249-2.343 1.897-3.516 0.525-0.953 1.376-1.764 1.9032-2.721 0.516-0.935 1.186-1.77 1.694-2.689 0.193-0.348 0.391-0.754 0.65-1.051 0.221-0.254 0.517-0.404 0.761-0.64 0.195-0.259 0.389-0.517 0.582-0.776 0.537-0.534 1.035-1.079 1.523-1.653 1.073-1.262 2-2.574 3.195-3.756 0.254-0.338 0.508-0.676 0.76-1.013 1.591-1.595 2.838-3.377 4.464-4.948 0.483-0.467 0.864-1.254 1.357-1.683 1.061-0.922 2.467-1.678 3.701-2.444 2.485-1.539 5.071-3.072 7.655-4.6 1.762-1.043 4.074-1.475 6.055-2.351 0.97-0.429 2.058-0.85 3.013-1.28 0.546-0.245 1.078-0.258 1.634-0.499 1.46-0.628 3.039-1.354 4.512-1.972 0.418-0.059 0.835-0.118 1.253-0.178 1.132-0.425 2.607-0.303 3.729-0.742 0.467-0.182 1.321 0.001 1.663-0.289" fill="#006B2C"/>
 <path d="m81.302 36.092c-0.02-0.614-0.203-1.442-0.066-1.96 0.15-0.571 0.967-1.332 1.345-1.789 0.739-0.899 1.394-1.825 2.231-2.66 0.386-0.384 0.655-0.933 1.037-1.32 1.094-1.098 2.017-2.344 3.015-3.516 1.155-1.354 2.407-2.65 3.65-3.927 0.338-0.346 0.539-0.896 0.828-1.288 0.597-0.811 1.241-1.636 1.955-2.355l0.441-0.648c0.327-0.329 0.769-0.726 0.777-1.282-0.347-0.329-0.663-0.989-0.894-1.418-0.06-0.168-0.119-0.338-0.179-0.506-0.138-0.174-0.532-0.223-0.737-0.322-0.701-0.335-1.648-0.967-2.579-0.911-0.083 0.144-0.221 0.188-0.328 0.312-0.413 0.482-0.718 0.985-1.18 1.445-0.262 0.263-0.386 0.65-0.612 0.939-0.132 0.17-0.433 0.254-0.581 0.403-0.289 0.287-0.253 0.653-0.442 1.021-0.256 0.32-0.512 0.64-0.769 0.962-0.167 0.307-0.271 0.621-0.456 0.916-1.23 1.98-2.902 3.683-3.912 5.828-0.222 0.473-0.33 0.934-0.544 1.409-0.104 0.229-0.327 0.43-0.441 0.648-0.369 0.705-0.698 1.401-1.09 2.071-0.08 0.135-0.02 0.307-0.098 0.441-0.153 0.265-0.716 1.318-0.97 1.415-0.02-0.015-0.04-0.029-0.059-0.044-0.16-1.15-0.617-2.117-0.632-2.947-0.028-1.7-0.108-3.82-0.703-5.331-0.16-0.403-0.145-0.921-0.291-1.291-0.432-1.107-0.303-2.539-0.727-3.623-0.051-0.366-0.104-0.731-0.155-1.097-0.108-0.748-0.273-2.131-0.499-2.751-0.191-0.53-0.019-1.427-0.354-1.76-0.235-0.113-0.538 0.036-0.852 0.014-1.275-0.092-2.443 0.471-3.437 0.915-0.379 0.168-1.326 0.442-1.396 0.676-0.095 0.211 0.256 1.183 0.365 1.439 0.589 1.378 0.906 2.79 1.495 4.154 0.381 0.882 0.683 1.888 1.071 2.672 0.024 0.046-0.045 0.338 0.015 0.477 0.033 0.076 0.174 0.259 0.209 0.343 0.025 0.173 0.05 0.348 0.074 0.521 0.304 0.649 0.609 1.299 0.914 1.947 0.068 0.345 0.134 0.692 0.202 1.036 0.404 0.999 0.68 2.447 1.077 3.469 0.083 0.45 0.164 0.899 0.246 1.35 0.531 1.415 0.404 2.687 0.876 3.922 0.289 0.759 0.063 1.183 0.416 1.805 0.805 0.213 1.942 0.255 2.744 0.196zm-49.465-7.461c0.008 0.053 0.015 0.104 0.023 0.157-0.386 0.353-0.716 0.955-0.972 1.415-0.516 0.933-1.455 1.634-1.917 2.616-0.132 0.28-0.145 0.543-0.254 0.835-0.46 1.227-0.871 2.513-1.391 3.712-0.145 0.335-0.431 0.695-0.545 1.036-0.019 0.358-0.041 0.715-0.061 1.073-0.151 0.881-0.42 1.861-0.203 2.693 0.027 0.099-0.031 0.396-0.038 0.483 0.032 0.226 0.065 0.452 0.096 0.678-0.039 0.55-0.153 1.52 0.096 2.17 0.204 0.535 0.439 1.036 0.64 1.508 0.201 0.474 0.178 0.908 0.401 1.327 0.267 0.503 0.587 1.095 0.818 1.641 0.053 0.241 0.104 0.482 0.157 0.723 0.177 0.418 0.426 0.885 0.611 1.299 0.213 0.478 0.244 0.884 0.46 1.371 0.215 0.482 0.677 1.417 0.647 1.932 0.6 1.219 1.254 2.411 1.891 3.566 0.267 0.485 0.399 0.922 0.678 1.394 1.533 2.592 2.783 5.702 4.407 8.161 0.412 0.627 0.713 1.376 1.094 2.082 0.102 0.19 0.361 0.512 0.312 0.7-0.31 0.302-0.749 0.387-1.134 0.64-0.718 0.473-1.584 0.785-2.32 1.289-1.617 1.108-3.184 2.12-4.639 3.321-0.106 0.139-0.21 0.279-0.314 0.417-0.244 0.228-0.541 0.352-0.769 0.589-0.181 0.189-0.241 0.522-0.432 0.7-0.371 0.345-0.786 0.611-1.083 1.007-0.103 0.137-0.125 0.343-0.254 0.462-0.288 0.267-0.709 0.48-0.896 0.818-0.275 0.507-0.358 1.114-0.62 1.633-0.785 1.558-1.736 3.119-2.232 4.896-0.382 1.358-0.528 2.889-0.885 4.28-0.221 0.868-0.023 2.049-0.105 2.996 0.031 0.227 0.062 0.453 0.095 0.68-0.057 0.83 0.282 2.929 0.504 3.549 0.103 0.73 0.207 1.461 0.311 2.19 0.911 2.2 2.297 3.74 3.68 5.29 0.351 0.39 0.582 0.85 0.922 1.25 0.249 0.29 0.612 0.55 0.865 0.83 0.13 0.15 0.15 0.35 0.284 0.5 0.275 0.19 0.551 0.38 0.826 0.57 0.187 0.19 0.441 0.55 0.678 0.65 0.07-0.01 0.139-0.02 0.208-0.03 0.03 0.08 0.06 0.17 0.089 0.25 0.217 0.27 0.674 0.58 0.962 0.77 1.046 0.69 2.254 1.13 3.385 1.71 0.597 0.3 1.179 0.74 1.795 1.02 0.361 0.16 0.767 0.19 1.118 0.37 0.405 0.21 0.832 0.57 1.319 0.67l3.207-0.3c1.312 0.1 4.269-0.28 5.586-0.79 0.311-0.05 0.625-0.09 0.938-0.14 0.763-0.28 1.593-0.32 2.208-0.57 0.295-0.05 0.591-0.09 0.888-0.13 0.655-0.29 1.201-0.76 1.76-1.1 0.684-0.42 1.436-0.59 2.088-1.04 0.328-0.23 0.604-0.62 0.948-0.83 0.365-0.23 0.754-0.32 1.089-0.58 1.246-0.98 2.692-1.85 3.962-2.85 0.427-0.34 1.107-1 1.723-1 0.112 0.39 0.429 0.64 0.61 0.93 0.294 0.47 0.528 0.99 0.789 1.43 0.749 1.26 1.132 2.72 1.846 4 0.371 0.67 0.956 1.37 1.401 1.99 0.962 1.34 1.879 2.61 2.889 3.84 0.098 0.19 0.193 0.37 0.291 0.55 0.455 0.55 1.07 1.01 1.549 1.54 0.205 0.22 0.304 0.51 0.528 0.72 0.525 0.49 1.231 0.84 1.737 1.35 0.834 0.85 1.677 1.65 2.711 2.23 0.363 0.3 0.726 0.6 1.089 0.91 0.198 0.02 0.398 0.05 0.596 0.07 0.483 0.13 1.003 0.23 1.543 0.37 0.871 0.22 1.785 0.51 2.661 0.74 0.428 0.11 0.802 0.05 1.246 0.14 0.228 0.05 0.526 0.22 0.729 0.27 0.898 0.22 1.894 0.14 2.856 0.23 0.35-0.03 0.702-0.06 1.051-0.09 1.118 0.14 2.672-0.17 3.753-0.59 0.551-0.11 1.102-0.23 1.654-0.34 1.065-0.44 2.056-1.03 3.028-1.55 0.584-0.31 1.241-0.35 1.771-0.67 0.32-0.21 0.47-0.6 0.73-0.85 0.41-0.4 0.81-0.81 1.21-1.19 0.68-0.63 1.54-1.09 2.21-1.75 0.4-0.4 0.89-1.54 1.19-2.09 0.24-0.43 0.6-0.84 0.83-1.29 1.01-1.96 1.88-4.04 2.76-6.08 0.59-1.41-0.03-3.53 0.12-5.13-0.07-0.47-0.13-0.94-0.2-1.41 0.07-0.96-0.19-2.14-0.35-3.2-0.05-0.26-0.11-0.521-0.16-0.778 0.01-0.55-0.25-1.535-0.53-2.216-0.08-0.343-0.17-0.685-0.25-1.028-0.09-0.191-0.31-0.399-0.4-0.582-0.03-0.157-0.05-0.314-0.07-0.471-0.09-0.201-0.18-0.46-0.31-0.701-0.1-0.183-0.38-0.412-0.46-0.574 0.01-0.107 0.01-0.213 0.01-0.32-0.02-0.043-0.16-0.144-0.19-0.187-0.09-0.254-0.17-0.508-0.26-0.76-0.07-0.091-0.25-0.175-0.31-0.278-0.31-0.529-0.45-1.089-0.76-1.595-0.18-0.287-0.48-0.574-0.65-0.866-0.27-0.454-0.33-0.844-0.61-1.244-0.38-0.555-0.88-1.027-1.28-1.523-0.25-0.311-0.35-0.65-0.61-0.926-0.19-0.196-0.53-0.246-0.7-0.432-0.17-0.184-0.57-0.936-0.65-1.187 0.97-0.594 1.96-1.264 2.93-1.854 0.98-0.588 2.08-0.946 2.91-1.637 1.42-1.167 2.89-2.379 4.23-3.635 0.69-0.652 1.34-1.414 2.05-2.049 0.68-0.614 1.4-1.213 2.09-1.787 0.21-0.178 0.48-0.235 0.68-0.418 0.45-0.391 0.86-0.909 1.31-1.303 0.25-0.216 0.61-0.556 0.86-0.708 0.24-0.145 0.5-0.149 0.7-0.312 0.61-0.505 1.24-1.067 1.91-1.549 0.47-0.337 1.07-0.553 1.46-0.954 0.14-0.142 0.14-0.393 0.24-0.566l0.19-0.135c0.18-0.289 0.25-0.607 0.41-0.909 0.28-0.542 0.77-0.994 1.12-1.49 0.01-0.071 0.01-0.144 0.02-0.216 0.08-0.116 0.27-0.192 0.33-0.314 0.11-0.214 0.01-0.426 0.06-0.7 0.15-0.768 0.31-1.523 0.46-2.356 0.29-1.605 0.4-3.465 0.6-5.144-0.01-0.246-0.03-0.492-0.05-0.738 0.07-0.706 0.11-1.973-0.05-2.655-0.04-0.147 0.02-0.416 0.03-0.536-0.14-0.868-0.29-1.736-0.43-2.602-0.59-1.429-1.48-2.828-2.22-4.051-0.23-0.368-0.29-0.742-0.53-1.097-0.17-0.236-0.51-0.512-0.64-0.761-0.13-0.247-0.08-0.455-0.2-0.663-0.8-1.365-1.71-2.888-2.62-4.156-0.25-0.362-0.36-0.753-0.63-1.081-0.34-0.409-0.85-0.637-1.21-1-0.2-0.203-0.34-0.502-0.57-0.665-0.2-0.142-0.55-0.106-0.78-0.21-0.27-0.128-0.58-0.341-0.86-0.462-0.2-0.043-0.4-0.085-0.6-0.127-0.31-0.15-0.62-0.486-0.94-0.612-0.2-0.076-0.35-0.006-0.55-0.084-0.18-0.134-0.35-0.267-0.53-0.403-0.57-0.212-1.08-0.292-1.67-0.455-0.84-0.239-1.72-0.685-2.57-0.912-0.38-0.101-0.72-0.063-1.09-0.165-1.07-0.296-2.14-0.855-3.29-1.025-0.23 0.015-0.46 0.03-0.69 0.044-0.41-0.047-0.84-0.148-1.3-0.186-0.42 0.058-0.84 0.117-1.25 0.177-3.559-0.271-7.559 1.293-10.347 2.534-0.853 0.379-1.838 0.493-2.693 0.914-0.855 0.422-1.67 1.038-2.447 1.52-1.61 1-3.057 1.93-4.46 3.084-0.66 0.539-1.904 1.79-2.843 1.734-0.127-0.211-0.257-0.307-0.133-0.568-0.118-0.071-0.233-0.143-0.35-0.216-0.446-0.597-0.65-1.312-1.117-1.865-0.287-0.339-0.715-0.605-0.992-0.976-0.364-0.494-0.572-1.01-0.952-1.464-0.645-0.77-1.432-1.528-2.034-2.32-0.377-0.495-0.731-0.937-1.103-1.387-0.095-0.182-0.193-0.363-0.29-0.545-0.148-0.049-0.299-0.101-0.447-0.15-0.129-0.13-0.132-0.426-0.238-0.551-0.038-0.045-0.305-0.188-0.358-0.269-0.211-0.327-0.241-0.555-0.447-0.896-0.297-0.493-0.841-0.833-1.191-1.269-0.345-0.427-0.439-1.013-0.789-1.431-0.251-0.301-0.676-0.4-0.947-0.664-0.224-0.222-0.465-0.545-0.738-0.695-0.25-0.137-0.561-0.216-0.752-0.426-0.549-0.602-1.079-1.341-1.789-1.716-0.174-0.092-0.392-0.081-0.557-0.186-0.253-0.16-0.461-0.451-0.723-0.591-0.216-0.114-0.445-0.112-0.671-0.223-0.175-0.087-0.274-0.312-0.433-0.419-0.147-0.031-0.293-0.064-0.439-0.097-0.201-0.167-0.402-0.333-0.604-0.5-0.638-0.34-1.318-0.52-1.983-0.837-0.259-0.123-0.526-0.391-0.812-0.47-0.176 0.007-0.353 0.015-0.529 0.022-0.556-0.066-1.19-0.217-1.744-0.284-0.141 0.02-0.279 0.039-0.418 0.059-0.543-0.061-1.186-0.162-1.737-0.232-0.779-0.101-1.576-0.005-2.304-0.099-0.368 0.034-0.736 0.069-1.104 0.102-0.81-0.068-2.131-0.046-2.908 0.147-0.723 0.18-1.736 0.052-2.452 0.348-3.284 1.359-6.071 2.874-8.706 4.697-0.359 0.25-0.719 0.593-1.052 0.842-0.446 0.336-0.916 0.513-1.314 0.879-0.295 0.273-0.267 0.792-0.716 0.954z" fill="#fff"/>
</svg>
