<?xml version="1.0" encoding="UTF-8" standalone="no"?>
<svg
   xmlns:dc="http://purl.org/dc/elements/1.1/"
   xmlns:cc="http://creativecommons.org/ns#"
   xmlns:rdf="http://www.w3.org/1999/02/22-rdf-syntax-ns#"
   xmlns:svg="http://www.w3.org/2000/svg"
   xmlns="http://www.w3.org/2000/svg"
   id="svg4550"
   version="1.1"
   viewBox="0 0 317.49982 132.25462"
   height="132.25462mm"
   width="317.49982mm">
  <defs
     id="defs4544" />
  <metadata
     id="metadata4547">
    <rdf:RDF>
      <cc:Work
         rdf:about="">
        <dc:format>image/svg+xml</dc:format>
        <dc:type
           rdf:resource="http://purl.org/dc/dcmitype/StillImage" />
        <dc:title></dc:title>
      </cc:Work>
    </rdf:RDF>
  </metadata>
  <g
     transform="translate(26.458243,-106.8965)"
     id="layer1">
    <path
       style="fill:#582c83;fill-opacity:1;stroke-width:0.26458332"
       d="m 124.32365,238.98169 c -1.10823,-0.12711 -3.42059,-0.54637 -5.13858,-0.93168 -14.95734,-3.35465 -27.716063,-13.53053 -34.378583,-27.41906 -1.6413,-3.42141 -3.04044,-7.44078 -3.8325,-11.00979 l -0.54445,-2.45333 3.07815,-7.46855 c 4.71929,-11.45048 13.68051,-34.21176 15.73812,-39.97439 0.44743,-1.25311 1.343873,-2.05806 4.391503,-3.94324 5.82046,-3.60042 12.12514,-5.95238 19.12945,-7.13634 1.22727,-0.20746 4.25569,-0.32782 7.9375,-0.31549 5.39785,0.018 6.26819,0.0862 9.33096,0.73001 4.72347,0.99298 7.96906,2.076 12.00412,4.00566 5.66078,2.70716 9.92483,5.72672 14.28668,10.11701 9.84363,9.90785 15.17867,23.72913 14.54412,37.67896 -0.33388,7.34013 -1.94387,13.63041 -5.17245,20.20883 -7.1116,14.49033 -20.61829,24.63432 -36.65905,27.53217 -2.77882,0.50202 -11.65085,0.73065 -14.71499,0.37923 z m 12.59832,-26.1157 c 4.68794,-1.33554 8.31334,-3.51446 11.67699,-7.01813 4.66902,-4.86336 6.85268,-10.39304 6.81879,-17.26716 -0.0251,-5.1 -1.23293,-9.25353 -3.86178,-13.28055 -3.36381,-5.15284 -8.15123,-8.73098 -14.16084,-10.58383 -2.1467,-0.66186 -2.6706,-0.71639 -6.82316,-0.71025 -4.11483,0.006 -4.69582,0.0671 -6.82146,0.71641 -4.53525,1.38539 -8.15631,3.62077 -11.35105,7.00736 -4.45974,4.72755 -6.66872,10.40284 -6.66181,17.11545 0.005,5.10897 1.19877,9.16403 3.94817,13.41419 3.58891,5.54786 9.19099,9.38763 15.99136,10.96076 2.24523,0.51938 8.9158,0.30924 11.24479,-0.35425 z m 121.37445,25.84095 c -13.47665,-1.2088 -23.04525,-7.0286 -28.03807,-17.05332 -2.35898,-4.73636 -3.70459,-10.5696 -4.30298,-18.65312 -0.31977,-4.31975 -0.36766,-91.45157 -0.0504,-91.64768 0.11842,-0.0732 2.52944,-0.49699 5.35781,-0.94175 2.82837,-0.4448 5.85687,-0.92745 6.72999,-1.07257 4.63032,-0.76965 15.0935,-2.38175 15.45834,-2.38175 0.19317,0 0.30133,4.82544 0.3484,15.54427 l 0.0683,15.54427 12.7,0.13229 12.7,0.13229 v 11.50938 11.50937 l -12.7,0.13229 -12.7,0.13229 v 19.97605 c 0,19.83372 0.004,19.99265 0.59394,22.30622 2.19776,8.62251 5.78493,11.29586 15.15697,11.29586 4.98248,0 9.98739,-0.75888 15.04093,-2.28063 1.21928,-0.36716 2.31463,-0.56975 2.43411,-0.45022 0.11949,0.11952 0.70782,2.95574 1.30739,6.30272 1.88407,10.51732 2.64025,14.81088 2.64043,14.99196 0,0.43246 -7.13266,2.78191 -11.50918,3.79079 -4.99624,1.15176 -15.22193,1.72042 -21.23597,1.18099 z M 25.202433,236.27185 C 24.899335,235.8899 18.494762,221.99559 15.476157,215.17133 3.5018217,188.10054 -7.8506163,159.67251 -18.176087,130.90154 c -2.838775,-7.90999 -8.282156,-23.57179 -8.282156,-23.82957 0,-0.0634 7.252898,-0.11522 16.117554,-0.11522 H 5.7768647 l 2.966792,8.92968 c 4.0124243,12.07694 9.4603783,27.84317 14.1481153,40.94427 2.134832,5.96636 5.071051,14.18167 6.524931,18.25625 3.552206,9.95527 5.727777,15.72993 7.803552,20.71309 0.952567,2.28677 1.863974,4.48517 2.025352,4.88535 0.161377,0.40018 0.43112,0.72761 0.599426,0.72761 0.51171,0 4.47108,-9.98866 10.120662,-25.5323 9.430491,-25.94599 14.945733,-41.67965 20.844748,-59.4651 l 3.137284,-9.45885 h 15.5638 15.563823 l -0.18209,0.59531 c -0.35626,1.16483 -8.310623,23.47227 -10.967563,30.75781 -11.44405,31.3804 -24.43049,63.20134 -36.766867,90.09063 -1.769211,3.8563 -3.39066,7.27934 -3.603218,7.60677 l -0.386472,0.59531 H 39.317012 c -10.76534,0 -13.910611,-0.0737 -14.114579,-0.33073 z M 188.64801,174.04659 c 0,-34.40838 0.10179,-62.6236 0.22619,-62.70049 0.18564,-0.11472 22.21574,-3.65762 26.5634,-4.27193 l 1.2573,-0.17767 -0.0667,64.78691 -0.0667,64.78688 -13.95677,0.0685 -13.95677,0.0685 z"
       id="path4531" />
  </g>
</svg>
