<?xml version="1.0" encoding="UTF-8" standalone="no"?>
<!-- Created with Inkscape (http://www.inkscape.org/) -->

<svg
   xmlns:dc="http://purl.org/dc/elements/1.1/"
   xmlns:cc="http://creativecommons.org/ns#"
   xmlns:rdf="http://www.w3.org/1999/02/22-rdf-syntax-ns#"
   xmlns:svg="http://www.w3.org/2000/svg"
   xmlns="http://www.w3.org/2000/svg"
   version="1.1"
   width="1000"
   height="1112.62"
   id="svg3148">
  <defs
     id="defs3150" />
  <metadata
     id="metadata3153">
    <rdf:RDF>
      <cc:Work
         rdf:about="">
        <dc:format>image/svg+xml</dc:format>
        <dc:type
           rdf:resource="http://purl.org/dc/dcmitype/StillImage" />
        <dc:title></dc:title>
      </cc:Work>
    </rdf:RDF>
  </metadata>
  <g
     transform="translate(-257.71878,476.43242)"
     id="layer1">
    <g
       transform="matrix(4.8763969,0,0,4.8763969,-949.02013,-2516.1137)"
       id="g3193">
      <path
         d="m 287.78125,428.53125 1.65625,16.40625 c 0.31624,3.19625 0.7525,7.2325 1.1875,11.5625 l 0.8125,8.15625 c 0.83999,8.27625 1.66001,16.22875 1.96875,20 0.0962,1.27 0,3.3125 0,3.3125 0,0 0.405,-1.89875 0.875,-3.25 0.64626,-1.94875 1.67875,-5.07 2.90625,-8.75 l 0.0625,-0.15625 c 2.81625,-8.44 6.65625,-20.0175 9.5,-28.59375 l -18.96875,-18.6875 z m 55.3125,0 -4.09375,10.625 c -0.0913,0.2275 -0.18875,0.4375 -0.28125,0.6875 -0.14625,0.35875 -0.3725,0.99375 -0.6875,1.8125 l -15.25,39.75 c -4.3775,11.31 -9.28,23.84375 -14.15625,36.21875 l -38.40625,0 L 281.25,528.5 c 4.9,-0.0113 10.27125,-0.0163 14.34375,-0.0312 14.1075,0 24.485,2.955 31.90625,7.875 l 0.125,0 15.03125,-38.875 -4.71875,-33.65625 17.71875,0 6.40625,-16.59375 -18.96875,-18.6875 z M 368,463.8125 l 1.6875,16.40625 c 0.30748,3.1925 0.70125,7.26 1.15625,11.59375 l 0.8125,8.15625 c 0.83875,8.27375 1.63625,16.2275 1.9375,20 0.1,1.27 0.0312,3.28125 0.0312,3.28125 0,0 0.41749,-1.86875 0.875,-3.21875 0.66625,-1.96375 1.68251,-5.085 2.90625,-8.78125 l 0.0625,-0.15625 c 2.81374,-8.445 6.67876,-19.99875 9.53125,-28.5625 L 368,463.8125 z m 55.3125,0 -4.09375,10.65625 c -0.0925,0.23125 -0.1925,0.4175 -0.28125,0.65625 -0.14251,0.37 -0.38,0.9925 -0.6875,1.8125 l -15.28125,39.75 c -4.37251,11.30875 -9.23249,23.8475 -14.125,36.21875 l -38.40625,0 0,0.0312 19,18.6875 38.40625,0 34.4375,-89.09375 -18.96875,-18.71875 z m -90.34375,77 c 8.30999,8.43 11.04751,20.315 10.3125,32.90625 -1.605,27.8875 -19.66501,43.78125 -45.25,43.78125 l -35.03125,0 19,18.6875 35.03125,0 c 25.59,0 43.6375,-15.85875 45.25,-43.75 0.67751,-11.655 -1.64999,-22.70875 -8.59375,-30.96875 l 0,-0.0312 -0.0312,-0.0312 c -1.09249,-1.305 -17.70001,-17.6575 -20.6875,-20.59375 z m -33.21875,9.875 c -2.33251,0 -4.25,0.0937 -4.25,0.0937 l -3.28125,44.5 c 0,0 1.75126,-0.0112 4,0 6.9525,-0.0112 11.71751,-2.6675 14.5,-9.8125 2.795,-7.15875 4.5625,-22.25375 0.375,-29.125 -3.65749,-6.01625 -9.00751,-5.6375 -11.34375,-5.65625 z"
         id="path70"
         style="fill:#262b6a;fill-opacity:1;fill-rule:nonzero;stroke:none" />
      <path
         d="m 257.71875,428.53125 5.0625,36.125 c 3.26126,23.21875 7.4375,52.96875 7.4375,52.96875 l 38.40625,0 c 4.87374,-12.3725 9.77625,-24.90875 14.15625,-36.21875 l 15.25,-39.75 c 0.315,-0.82375 0.54126,-1.45375 0.6875,-1.8125 0.0925,-0.25375 0.18874,-0.45625 0.28125,-0.6875 l 4.09375,-10.625 c -5.97001,0 -24.12876,0.004 -30.125,0 l -3.03125,9.125 C 307.80126,444.1275 301.40751,463.36 297.25,475.8125 l -0.0625,0.15625 c -1.22875,3.67875 -2.25124,6.79 -2.90625,8.75 -0.46499,1.35125 -0.875,3.25 -0.875,3.25 0,0 0.10001,-2.03875 0,-3.3125 -0.3075,-3.7725 -1.12999,-11.72375 -1.96875,-20 L 290.625,456.5 c -0.435,-4.33 -0.87124,-8.3675 -1.1875,-11.5625 l -1.65625,-16.40625 c -6.54374,-0.004 -24.90499,0 -30.0625,0 z M 337.9375,463.8125 343,499.96875 c 3.26125,23.2175 7.4375,52.9375 7.4375,52.9375 l 38.40625,0 c 4.8925,-12.375 9.75251,-24.91 14.125,-36.21875 l 15.28125,-39.75 c 0.3075,-0.82 0.545,-1.44375 0.6875,-1.8125 0.0888,-0.23875 0.18875,-0.4525 0.28125,-0.6875 l 4.09375,-10.625 -30.125,0 -3.03125,9.15625 c -2.14501,6.46375 -8.5375,25.66625 -12.6875,38.125 l -0.0625,0.1875 c -1.22876,3.69375 -2.24,6.78625 -2.90625,8.75 -0.4575,1.35375 -0.875,3.21875 -0.875,3.21875 0,0 0.0688,-2.01125 -0.0312,-3.28125 -0.3,-3.77375 -1.09875,-11.73125 -1.9375,-20 l -0.8125,-8.15625 c -0.45379,-4.3375 -0.8488,-8.4025 -1.1563,-11.59375 L 368,463.8125 l -30.0625,0 z m -42.34375,64.65625 c -8.36875,0.015 -22.2275,0.0425 -26.21875,0.0625 l -1.03125,14.375 c -0.6225,8.78375 -2.13,29.88125 -3.28125,45.9375 L 263,617.5 l 35.03125,0 c 25.5825,0 43.645,-15.89751 45.25,-43.78125 1.37875,-23.87625 -9.6375,-45.25 -47.6875,-45.25 z M 299.75,550.6875 c 2.33625,0.0187 7.68625,-0.36375 11.34375,5.65625 4.19125,6.8675 2.42,21.965 -0.375,29.125 -2.7825,7.14375 -7.54875,9.80876 -14.5,9.8125 -2.24875,-0.004 -4,0 -4,0 l 3.28125,-44.5 c 0,0 1.9175,-0.0937 4.25,-0.0937 z"
         id="path54"
         style="fill:#f47621;fill-opacity:1;fill-rule:nonzero;stroke:none" />
    </g>
  </g>
</svg>
